<?xml version="1.0" encoding="UTF-8" standalone="no"?>
<!DOCTYPE svg PUBLIC "-//W3C//DTD SVG 1.1//EN" "http://www.w3.org/Graphics/SVG/1.1/DTD/svg11.dtd">
<svg width="100%" height="100%" viewBox="0 0 946 650" version="1.1" xmlns="http://www.w3.org/2000/svg" xmlns:xlink="http://www.w3.org/1999/xlink" xml:space="preserve" xmlns:serif="http://www.serif.com/" style="fill-rule:evenodd;clip-rule:evenodd;stroke-linejoin:round;stroke-miterlimit:2;">
    <g transform="matrix(4.16667,0,0,4.16667,0,0)">
        <rect x="0" y="0.096" width="226.772" height="155.905" style="fill:white;fill-rule:nonzero;"/>
        <path d="M148.238,81.061C148.238,80.546 148.117,80.18 147.874,79.962C147.63,79.743 147.347,79.635 147.018,79.635C146.672,79.635 146.373,79.743 146.127,79.962C145.879,80.18 145.755,80.546 145.755,81.061C145.755,81.577 145.879,81.944 146.127,82.161C146.373,82.381 146.663,82.488 146.988,82.488C147.335,82.488 147.63,82.381 147.874,82.161C148.117,81.944 148.238,81.577 148.238,81.061ZM146.647,85.755C146.437,85.755 146.256,85.741 146.097,85.712C146.007,85.76 145.919,85.819 145.837,85.889C145.752,85.96 145.677,86.044 145.607,86.142C145.537,86.24 145.48,86.359 145.435,86.491C145.39,86.626 145.369,86.782 145.369,86.959C145.369,87.723 145.789,88.104 146.632,88.104C147.356,88.104 147.888,87.962 148.238,87.679C148.583,87.397 148.757,87.073 148.757,86.707C148.757,86.361 148.65,86.116 148.428,85.97C148.21,85.827 147.92,85.755 147.552,85.755L146.647,85.755ZM149.959,79.783L149.068,79.783C149.296,80.16 149.41,80.585 149.41,81.061C149.41,81.439 149.349,81.777 149.225,82.08C149.1,82.383 148.927,82.637 148.706,82.844C148.481,83.054 148.219,83.212 147.917,83.32C147.617,83.429 147.292,83.485 146.944,83.485L146.75,83.485C146.69,83.485 146.627,83.478 146.559,83.468C146.437,83.52 146.315,83.597 146.186,83.708C146.058,83.815 145.994,83.959 145.994,84.136C145.994,84.286 146.049,84.405 146.164,84.503C146.277,84.594 146.463,84.642 146.721,84.642L147.626,84.642C147.963,84.642 148.277,84.677 148.563,84.748C148.85,84.814 149.1,84.925 149.315,85.08C149.527,85.233 149.693,85.428 149.811,85.666C149.93,85.905 149.992,86.192 149.992,86.528C149.992,86.914 149.909,87.266 149.747,87.584C149.582,87.901 149.351,88.172 149.054,88.402C148.757,88.628 148.396,88.807 147.969,88.936C147.542,89.064 147.068,89.129 146.544,89.129C145.78,89.129 145.201,88.962 144.804,88.63C144.408,88.301 144.21,87.822 144.21,87.198C144.21,86.931 144.256,86.699 144.35,86.507C144.443,86.313 144.556,86.145 144.685,86.001C144.813,85.856 144.946,85.744 145.079,85.659C145.212,85.577 145.319,85.507 145.397,85.46L145.397,85.428C145.09,85.201 144.938,84.87 144.938,84.433C144.938,84.246 144.974,84.083 145.05,83.943C145.124,83.805 145.208,83.693 145.302,83.602C145.395,83.513 145.49,83.441 145.584,83.386C145.679,83.333 145.75,83.295 145.798,83.276L145.798,83.246C145.433,83.078 145.139,82.812 144.915,82.452C144.693,82.091 144.582,81.627 144.582,81.061C144.582,80.664 144.646,80.315 144.775,80.014C144.903,79.712 145.076,79.461 145.294,79.263C145.514,79.066 145.768,78.917 146.06,78.818C146.352,78.719 146.667,78.668 147.001,78.668C147.342,78.668 147.658,78.729 147.953,78.846L150.124,78.846L149.959,79.783ZM141.848,85.978L141.848,81.387C141.848,80.784 141.745,80.35 141.543,80.087C141.34,79.825 141.031,79.694 140.615,79.694C140.257,79.694 139.96,79.783 139.722,79.962C139.484,80.14 139.297,80.313 139.157,80.482L139.157,85.978L137.953,85.978L137.953,78.846L139.053,78.846L139.053,79.65L139.084,79.65C139.112,79.59 139.177,79.504 139.278,79.39C139.375,79.275 139.505,79.166 139.664,79.063C139.823,78.959 140.009,78.867 140.228,78.788C140.446,78.708 140.694,78.668 140.971,78.668C141.289,78.668 141.576,78.717 141.833,78.809C142.09,78.904 142.308,79.056 142.488,79.263C142.664,79.471 142.803,79.741 142.903,80.074C143.001,80.405 143.05,80.814 143.05,81.301L143.05,85.978L141.848,85.978ZM136.113,85.978L135.014,85.978L135.014,85.177L134.982,85.177C134.953,85.235 134.888,85.323 134.79,85.435C134.691,85.552 134.565,85.659 134.41,85.762C134.256,85.867 134.072,85.96 133.852,86.038C133.635,86.118 133.392,86.158 133.125,86.158C132.807,86.158 132.525,86.111 132.27,86.015C132.019,85.921 131.8,85.77 131.624,85.562C131.447,85.353 131.31,85.085 131.215,84.755C131.121,84.423 131.075,84.014 131.075,83.529L131.075,78.846L132.277,78.846L132.277,83.439C132.277,84.035 132.375,84.456 132.567,84.708C132.761,84.96 133.062,85.087 133.466,85.087C133.814,85.087 134.107,85.001 134.343,84.827C134.582,84.654 134.77,84.486 134.908,84.316L134.908,78.846L136.113,78.846L136.113,85.978ZM128.117,85.978L128.117,81.387C128.117,80.784 128.016,80.35 127.814,80.087C127.609,79.825 127.299,79.694 126.884,79.694C126.527,79.694 126.232,79.783 125.992,79.962C125.756,80.14 125.568,80.313 125.428,80.482L125.428,85.978L124.225,85.978L124.225,75.474L125.428,75.341L125.428,79.575L125.458,79.575C125.499,79.516 125.56,79.436 125.645,79.337C125.728,79.239 125.844,79.139 125.992,79.041C126.141,78.942 126.323,78.855 126.535,78.78C126.75,78.705 126.999,78.668 127.287,78.668C127.911,78.668 128.405,78.872 128.771,79.278C129.138,79.686 129.322,80.359 129.322,81.301L129.322,85.978L128.117,85.978ZM122.457,80.23C122.428,80.2 122.38,80.154 122.316,80.094C122.252,80.036 122.17,79.976 122.07,79.917C121.97,79.859 121.853,79.805 121.712,79.761C121.576,79.717 121.417,79.694 121.239,79.694C120.98,79.694 120.74,79.741 120.519,79.835C120.295,79.929 120.101,80.081 119.938,80.288C119.774,80.498 119.646,80.766 119.551,81.098C119.458,81.431 119.412,81.834 119.412,82.309C119.412,82.835 119.453,83.276 119.538,83.631C119.621,83.988 119.738,84.273 119.886,84.488C120.034,84.699 120.215,84.851 120.428,84.946C120.642,85.039 120.875,85.087 121.133,85.087C121.501,85.087 121.78,85.024 121.973,84.895C122.167,84.766 122.304,84.661 122.382,84.582L122.872,85.416C122.824,85.474 122.75,85.547 122.657,85.631C122.564,85.714 122.443,85.796 122.292,85.874C122.145,85.954 121.963,86.02 121.751,86.075C121.538,86.13 121.292,86.158 121.016,86.158C120.618,86.158 120.248,86.094 119.902,85.964C119.554,85.836 119.252,85.624 118.994,85.326C118.737,85.028 118.535,84.642 118.387,84.169C118.238,83.693 118.162,83.102 118.162,82.401C118.162,81.715 118.251,81.136 118.429,80.66C118.609,80.185 118.841,79.801 119.128,79.508C119.416,79.217 119.736,79.004 120.085,78.87C120.44,78.737 120.794,78.668 121.148,78.668C121.417,78.668 121.652,78.694 121.855,78.743C122.058,78.793 122.23,78.855 122.375,78.929C122.521,79.004 122.637,79.083 122.731,79.166C122.826,79.25 122.902,79.323 122.962,79.383L122.457,80.23ZM116.366,80.288C116.286,80.2 116.144,80.078 115.934,79.924C115.727,79.77 115.453,79.694 115.118,79.694C114.799,79.694 114.557,79.768 114.387,79.917C114.221,80.065 114.135,80.243 114.135,80.451C114.135,80.719 114.213,80.94 114.367,81.113C114.521,81.288 114.754,81.471 115.072,81.67L115.517,81.939C116.002,82.225 116.384,82.536 116.664,82.866C116.939,83.198 117.079,83.626 117.079,84.151C117.079,84.715 116.882,85.191 116.49,85.579C116.1,85.964 115.537,86.158 114.804,86.158C114.519,86.158 114.264,86.128 114.048,86.068C113.829,86.008 113.64,85.94 113.476,85.86C113.312,85.781 113.175,85.693 113.066,85.599C112.958,85.504 112.868,85.421 112.799,85.34L113.379,84.389C113.437,84.449 113.51,84.518 113.594,84.595C113.677,84.677 113.78,84.755 113.899,84.827C114.017,84.901 114.152,84.963 114.299,85.013C114.447,85.064 114.623,85.087 114.818,85.087C115.176,85.087 115.449,85.01 115.637,84.849C115.827,84.692 115.918,84.501 115.918,84.27C115.918,84.103 115.896,83.957 115.852,83.832C115.807,83.71 115.741,83.597 115.652,83.499C115.565,83.4 115.453,83.304 115.325,83.217C115.197,83.127 115.048,83.029 114.878,82.92L114.433,82.637C113.988,82.348 113.64,82.048 113.386,81.73C113.132,81.412 113.008,81.008 113.008,80.511C113.008,80.243 113.059,79.999 113.164,79.775C113.267,79.554 113.413,79.36 113.601,79.196C113.79,79.032 114.009,78.904 114.262,78.809C114.515,78.717 114.785,78.668 115.072,78.668C115.349,78.668 115.587,78.696 115.785,78.751C115.984,78.804 116.154,78.875 116.298,78.959C116.441,79.043 116.56,79.127 116.656,79.212C116.749,79.294 116.825,79.369 116.885,79.427L116.366,80.288ZM112.161,79.902C112.13,79.882 112.067,79.859 111.967,79.827C111.867,79.799 111.733,79.783 111.565,79.783C111.19,79.783 110.894,79.886 110.682,80.087C110.468,80.291 110.318,80.511 110.229,80.748L110.229,85.978L109.025,85.978L109.025,78.846L110.124,78.846L110.124,79.814L110.154,79.814C110.204,79.675 110.266,79.538 110.347,79.405C110.426,79.271 110.526,79.151 110.643,79.049C110.764,78.944 110.904,78.862 111.067,78.802C111.231,78.743 111.426,78.713 111.656,78.713C111.822,78.713 111.96,78.729 112.065,78.759C112.168,78.788 112.248,78.812 112.308,78.831L112.161,79.902ZM106.26,82.414C106.26,81.463 106.123,80.772 105.845,80.341C105.568,79.909 105.181,79.694 104.687,79.694C104.192,79.694 103.807,79.909 103.534,80.341C103.262,80.772 103.126,81.463 103.126,82.414C103.126,83.365 103.264,84.049 103.542,84.463C103.819,84.879 104.207,85.087 104.702,85.087C105.197,85.087 105.58,84.879 105.852,84.463C106.125,84.049 106.26,83.365 106.26,82.414ZM101.878,82.414C101.878,81.76 101.955,81.195 102.109,80.719C102.261,80.243 102.47,79.855 102.732,79.554C102.995,79.25 103.296,79.028 103.64,78.885C103.98,78.741 104.344,78.668 104.731,78.668C105.127,78.668 105.494,78.741 105.831,78.885C106.167,79.028 106.459,79.25 106.707,79.554C106.955,79.855 107.151,80.243 107.294,80.719C107.438,81.195 107.509,81.76 107.509,82.414C107.509,83.078 107.436,83.648 107.287,84.123C107.138,84.595 106.933,84.984 106.67,85.288C106.408,85.591 106.102,85.81 105.756,85.95C105.41,86.087 105.042,86.158 104.657,86.158C104.26,86.158 103.894,86.087 103.557,85.95C103.22,85.81 102.929,85.591 102.68,85.288C102.434,84.984 102.237,84.599 102.093,84.13C101.95,83.661 101.878,83.088 101.878,82.414ZM95.934,85.978L95.934,75.726L100.971,75.726L100.883,76.751L97.226,76.751L97.226,80.542L100.6,80.542L100.6,81.567L97.226,81.567L97.226,85.978L95.934,85.978ZM88.148,85.087C88.335,85.087 88.505,85.064 88.653,85.013C88.802,84.963 88.931,84.901 89.04,84.827C89.148,84.755 89.24,84.677 89.315,84.595C89.389,84.518 89.447,84.449 89.485,84.389L89.485,79.991C89.377,79.922 89.251,79.864 89.106,79.814C88.963,79.763 88.782,79.74 88.564,79.74C88.287,79.74 88.027,79.785 87.784,79.88C87.542,79.974 87.331,80.131 87.152,80.347C86.974,80.566 86.834,80.848 86.729,81.195C86.626,81.541 86.573,81.969 86.573,82.473C86.573,82.969 86.615,83.382 86.7,83.716C86.784,84.047 86.9,84.313 87.049,84.515C87.198,84.718 87.366,84.863 87.554,84.953C87.742,85.042 87.94,85.087 88.148,85.087ZM85.325,82.518C85.325,81.796 85.419,81.19 85.608,80.705C85.796,80.219 86.039,79.827 86.336,79.532C86.632,79.235 86.97,79.023 87.346,78.9C87.722,78.775 88.099,78.713 88.476,78.713C88.703,78.713 88.901,78.731 89.069,78.766C89.238,78.8 89.377,78.843 89.485,78.893L89.485,75.474L90.689,75.341L90.689,85.978L89.589,85.978L89.589,85.221L89.559,85.221C89.53,85.281 89.477,85.362 89.397,85.468C89.317,85.571 89.209,85.675 89.069,85.779C88.931,85.883 88.757,85.97 88.549,86.047C88.341,86.121 88.099,86.158 87.821,86.158C87.485,86.158 87.166,86.091 86.862,85.956C86.561,85.821 86.296,85.609 86.068,85.318C85.84,85.026 85.659,84.649 85.526,84.189C85.392,83.728 85.325,83.172 85.325,82.518ZM82.651,85.978L82.651,81.387C82.651,80.784 82.549,80.35 82.346,80.087C82.143,79.825 81.834,79.694 81.417,79.694C81.061,79.694 80.764,79.783 80.526,79.962C80.289,80.14 80.1,80.313 79.962,80.482L79.962,85.978L78.758,85.978L78.758,78.846L79.857,78.846L79.857,79.65L79.887,79.65C79.916,79.59 79.981,79.504 80.08,79.39C80.178,79.275 80.308,79.166 80.466,79.063C80.625,78.959 80.813,78.867 81.032,78.788C81.249,78.708 81.496,78.668 81.773,78.668C82.091,78.668 82.378,78.717 82.636,78.809C82.894,78.904 83.11,79.056 83.289,79.263C83.468,79.471 83.606,79.741 83.705,80.074C83.805,80.405 83.855,80.814 83.855,81.301L83.855,85.978L82.651,85.978ZM76.915,85.978L75.815,85.978L75.815,85.177L75.786,85.177C75.756,85.235 75.691,85.323 75.593,85.435C75.493,85.552 75.367,85.659 75.214,85.762C75.06,85.867 74.874,85.96 74.657,86.038C74.439,86.118 74.196,86.158 73.929,86.158C73.612,86.158 73.327,86.111 73.074,86.015C72.822,85.921 72.606,85.77 72.429,85.562C72.25,85.353 72.113,85.085 72.02,84.755C71.924,84.423 71.878,84.014 71.878,83.529L71.878,78.846L73.082,78.846L73.082,83.439C73.082,84.035 73.178,84.456 73.371,84.708C73.564,84.96 73.863,85.087 74.271,85.087C74.616,85.087 74.91,85.001 75.147,84.827C75.386,84.654 75.573,84.486 75.711,84.316L75.711,78.846L76.915,78.846L76.915,85.978ZM127.999,66.077C127.999,65.563 127.876,65.196 127.634,64.978C127.393,64.761 127.107,64.652 126.78,64.652C126.433,64.652 126.136,64.761 125.889,64.978C125.643,65.196 125.517,65.563 125.517,66.077C125.517,66.593 125.643,66.959 125.889,67.177C126.136,67.395 126.424,67.504 126.751,67.504C127.097,67.504 127.393,67.395 127.634,67.177C127.876,66.959 127.999,66.593 127.999,66.077ZM126.409,70.772C126.202,70.772 126.018,70.758 125.859,70.728C125.771,70.779 125.683,70.836 125.6,70.906C125.515,70.977 125.438,71.061 125.368,71.159C125.299,71.258 125.244,71.374 125.198,71.508C125.153,71.641 125.132,71.799 125.132,71.976C125.132,72.739 125.553,73.12 126.394,73.12C127.119,73.12 127.654,72.979 127.999,72.698C128.345,72.415 128.518,72.09 128.518,71.724C128.518,71.376 128.41,71.133 128.192,70.989C127.974,70.845 127.683,70.772 127.315,70.772L126.409,70.772ZM129.722,64.8L128.83,64.8C129.059,65.177 129.173,65.602 129.173,66.077C129.173,66.454 129.112,66.794 128.988,67.095C128.865,67.398 128.69,67.652 128.468,67.861C128.244,68.069 127.981,68.228 127.68,68.337C127.378,68.446 127.052,68.5 126.708,68.5L126.512,68.5C126.454,68.5 126.389,68.494 126.321,68.484C126.202,68.535 126.078,68.613 125.947,68.722C125.82,68.832 125.756,68.975 125.756,69.154C125.756,69.302 125.813,69.423 125.926,69.518C126.041,69.61 126.228,69.659 126.484,69.659L127.39,69.659C127.726,69.659 128.037,69.694 128.326,69.762C128.613,69.833 128.865,69.943 129.075,70.096C129.289,70.25 129.455,70.446 129.575,70.683C129.692,70.922 129.753,71.208 129.753,71.546C129.753,71.932 129.67,72.284 129.507,72.601C129.343,72.918 129.114,73.19 128.815,73.417C128.518,73.646 128.158,73.825 127.732,73.953C127.304,74.081 126.83,74.147 126.305,74.147C125.542,74.147 124.962,73.981 124.567,73.648C124.17,73.316 123.973,72.838 123.973,72.214C123.973,71.948 124.02,71.716 124.113,71.523C124.208,71.33 124.319,71.161 124.449,71.018C124.577,70.874 124.708,70.761 124.841,70.676C124.975,70.592 125.083,70.525 125.162,70.477L125.162,70.446C124.853,70.219 124.701,69.886 124.701,69.45C124.701,69.261 124.737,69.099 124.812,68.96C124.886,68.821 124.969,68.709 125.063,68.618C125.158,68.529 125.253,68.457 125.347,68.403C125.441,68.349 125.513,68.311 125.563,68.291L125.563,68.262C125.196,68.094 124.9,67.828 124.679,67.467C124.456,67.105 124.342,66.642 124.342,66.077C124.342,65.681 124.409,65.332 124.537,65.03C124.666,64.728 124.839,64.478 125.056,64.279C125.276,64.081 125.529,63.933 125.823,63.833C126.114,63.735 126.429,63.685 126.767,63.685C127.103,63.685 127.42,63.745 127.716,63.864L129.888,63.864L129.722,64.8ZM121.61,70.996L121.61,66.405C121.61,65.801 121.509,65.366 121.303,65.104C121.103,64.842 120.794,64.711 120.378,64.711C120.02,64.711 119.722,64.8 119.487,64.978C119.248,65.156 119.058,65.329 118.921,65.499L118.921,70.996L117.717,70.996L117.717,63.864L118.816,63.864L118.816,64.667L118.847,64.667C118.875,64.606 118.94,64.52 119.039,64.406C119.137,64.291 119.267,64.184 119.427,64.079C119.583,63.975 119.772,63.883 119.991,63.804C120.208,63.724 120.457,63.685 120.733,63.685C121.051,63.685 121.337,63.733 121.596,63.826C121.853,63.921 122.07,64.071 122.248,64.279C122.428,64.487 122.567,64.758 122.665,65.089C122.763,65.421 122.813,65.83 122.813,66.315L122.813,70.996L121.61,70.996ZM115.875,70.996L114.775,70.996L114.775,70.194L114.745,70.194C114.714,70.252 114.65,70.34 114.552,70.454C114.453,70.567 114.326,70.676 114.173,70.781C114.02,70.884 113.833,70.977 113.615,71.055C113.398,71.135 113.156,71.174 112.887,71.174C112.571,71.174 112.288,71.127 112.035,71.032C111.781,70.939 111.565,70.788 111.388,70.579C111.208,70.371 111.074,70.102 110.979,69.77C110.885,69.438 110.838,69.03 110.838,68.545L110.838,63.864L112.042,63.864L112.042,68.455C112.042,69.05 112.137,69.473 112.331,69.725C112.524,69.977 112.822,70.104 113.23,70.104C113.578,70.104 113.867,70.017 114.107,69.844C114.343,69.672 114.534,69.501 114.67,69.331L114.67,63.864L115.875,63.864L115.875,70.996ZM106.499,70.104C106.688,70.104 106.856,70.078 107.004,70.03C107.153,69.981 107.282,69.918 107.391,69.844C107.5,69.77 107.591,69.694 107.666,69.613C107.741,69.534 107.797,69.466 107.837,69.406L107.837,65.007C107.729,64.939 107.601,64.878 107.458,64.829C107.315,64.78 107.133,64.756 106.916,64.756C106.637,64.756 106.377,64.802 106.136,64.896C105.892,64.991 105.682,65.147 105.504,65.365C105.326,65.582 105.184,65.865 105.081,66.211C104.975,66.558 104.924,66.984 104.924,67.489C104.924,67.984 104.966,68.399 105.05,68.73C105.134,69.061 105.251,69.329 105.4,69.532C105.549,69.735 105.717,69.881 105.904,69.97C106.093,70.059 106.291,70.104 106.499,70.104ZM103.676,67.533C103.676,66.811 103.77,66.206 103.958,65.72C104.146,65.236 104.389,64.844 104.687,64.547C104.982,64.25 105.32,64.039 105.696,63.915C106.074,63.792 106.45,63.73 106.826,63.73C107.055,63.73 107.252,63.747 107.42,63.782C107.588,63.817 107.729,63.859 107.837,63.908L107.837,60.491L109.04,60.357L109.04,70.996L107.94,70.996L107.94,70.237L107.911,70.237C107.882,70.299 107.828,70.379 107.748,70.484C107.667,70.587 107.559,70.691 107.42,70.796C107.282,70.899 107.108,70.989 106.9,71.063C106.693,71.137 106.45,71.174 106.172,71.174C105.835,71.174 105.516,71.109 105.214,70.974C104.912,70.839 104.646,70.627 104.419,70.335C104.192,70.043 104.01,69.667 103.877,69.205C103.743,68.744 103.676,68.188 103.676,67.533ZM101.805,69.331C101.805,69.628 101.846,69.838 101.93,69.956C102.013,70.074 102.16,70.133 102.369,70.133C102.477,70.133 102.569,70.124 102.644,70.104C102.717,70.083 102.775,70.064 102.813,70.045L102.919,70.937C102.859,70.966 102.75,71.006 102.592,71.055C102.434,71.105 102.219,71.13 101.952,71.13C101.546,71.13 101.219,71.006 100.971,70.758C100.724,70.511 100.6,70.069 100.6,69.435L100.6,60.491L101.805,60.357L101.805,69.331ZM98.178,62.139C97.931,62.139 97.732,62.061 97.584,61.903C97.435,61.743 97.36,61.535 97.36,61.277C97.36,61.031 97.435,60.827 97.584,60.668C97.732,60.511 97.931,60.431 98.178,60.431C98.416,60.431 98.608,60.511 98.757,60.668C98.906,60.827 98.98,61.031 98.98,61.277C98.98,61.535 98.906,61.743 98.757,61.903C98.608,62.061 98.416,62.139 98.178,62.139ZM98.772,70.996L97.568,70.996L97.568,63.864L98.772,63.864L98.772,70.996ZM94.597,68.129C94.597,67.573 94.416,67.136 94.054,66.813C93.693,66.491 93.175,66.33 92.502,66.33L91.625,66.33L91.625,69.925L92.428,69.925C93.19,69.925 93.742,69.775 94.084,69.473C94.426,69.171 94.597,68.722 94.597,68.129ZM94.403,63.403C94.403,62.928 94.235,62.536 93.899,62.23C93.562,61.921 93.032,61.768 92.309,61.768L91.625,61.768L91.625,65.305L92.295,65.305C92.986,65.305 93.511,65.136 93.869,64.8C94.226,64.463 94.403,63.997 94.403,63.403ZM95.711,63.358C95.711,63.715 95.667,64.027 95.578,64.294C95.489,64.562 95.367,64.793 95.213,64.986C95.06,65.179 94.881,65.335 94.679,65.453C94.475,65.573 94.265,65.661 94.047,65.72L94.047,65.751C94.314,65.801 94.565,65.894 94.797,66.033C95.031,66.172 95.233,66.345 95.407,66.553C95.581,66.761 95.72,67.007 95.823,67.29C95.927,67.572 95.979,67.881 95.979,68.219C95.979,68.624 95.909,68.995 95.772,69.331C95.631,69.67 95.416,69.961 95.125,70.208C94.833,70.456 94.463,70.649 94.018,70.788C93.572,70.927 93.042,70.996 92.428,70.996L90.333,70.996L90.333,60.743L92.309,60.743C92.913,60.743 93.43,60.804 93.861,60.928C94.293,61.053 94.647,61.229 94.924,61.456C95.2,61.684 95.402,61.96 95.526,62.281C95.649,62.603 95.711,62.962 95.711,63.358ZM86.083,64.919C86.053,64.899 85.988,64.873 85.89,64.844C85.791,64.815 85.657,64.8 85.489,64.8C85.112,64.8 84.817,64.901 84.605,65.104C84.391,65.308 84.24,65.528 84.151,65.765L84.151,70.996L82.947,70.996L82.947,63.864L84.047,63.864L84.047,64.829L84.078,64.829C84.126,64.691 84.191,64.554 84.271,64.421C84.35,64.287 84.448,64.168 84.567,64.064C84.687,63.96 84.827,63.878 84.99,63.819C85.154,63.76 85.35,63.73 85.578,63.73C85.746,63.73 85.883,63.745 85.986,63.774C86.09,63.804 86.172,63.828 86.231,63.848L86.083,64.919ZM80.437,61.813C80.437,62.042 80.367,62.224 80.23,62.363C80.09,62.501 79.921,62.572 79.724,62.572C79.525,62.572 79.357,62.501 79.218,62.363C79.08,62.224 79.009,62.042 79.009,61.813C79.009,61.585 79.08,61.401 79.218,61.263C79.357,61.125 79.525,61.055 79.724,61.055C79.921,61.055 80.09,61.125 80.23,61.263C80.367,61.401 80.437,61.585 80.437,61.813ZM78.149,61.813C78.149,62.042 78.079,62.224 77.94,62.363C77.802,62.501 77.634,62.572 77.435,62.572C77.237,62.572 77.068,62.501 76.93,62.363C76.792,62.224 76.721,62.042 76.721,61.813C76.721,61.585 76.792,61.401 76.93,61.263C77.068,61.125 77.237,61.055 77.435,61.055C77.634,61.055 77.802,61.125 77.94,61.263C78.079,61.401 78.149,61.585 78.149,61.813ZM81.105,70.996L80.006,70.996L80.006,70.194L79.977,70.194C79.945,70.252 79.882,70.34 79.783,70.454C79.684,70.567 79.558,70.676 79.403,70.781C79.251,70.884 79.064,70.977 78.847,71.055C78.629,71.135 78.386,71.174 78.118,71.174C77.802,71.174 77.516,71.127 77.265,71.032C77.012,70.939 76.797,70.788 76.618,70.579C76.439,70.371 76.303,70.102 76.209,69.77C76.116,69.438 76.069,69.03 76.069,68.545L76.069,63.864L77.272,63.864L77.272,68.455C77.272,69.05 77.368,69.473 77.562,69.725C77.755,69.977 78.054,70.104 78.46,70.104C78.807,70.104 79.1,70.017 79.336,69.844C79.575,69.672 79.763,69.501 79.902,69.331L79.902,63.864L81.105,63.864L81.105,70.996ZM74.924,64.844L73.468,64.844L73.468,70.996L72.264,70.996L72.264,64.844L71.402,64.844L71.402,64.041L72.264,63.878L72.264,62.452C72.264,62.066 72.318,61.734 72.429,61.456C72.537,61.179 72.68,60.951 72.858,60.774C73.037,60.594 73.245,60.466 73.483,60.386C73.721,60.307 73.974,60.268 74.241,60.268C74.498,60.268 74.716,60.303 74.894,60.372C75.073,60.441 75.191,60.496 75.251,60.535L74.999,61.531C74.939,61.492 74.855,61.449 74.746,61.404C74.637,61.361 74.503,61.338 74.345,61.338C74.058,61.338 73.839,61.427 73.69,61.604C73.542,61.783 73.468,62.11 73.468,62.586L73.468,63.864L75.073,63.864L74.924,64.844ZM168.518,56.012L168.518,51.42C168.518,50.837 168.434,50.416 168.265,50.158C168.098,49.9 167.824,49.771 167.449,49.771C167.25,49.771 167.075,49.797 166.919,49.846C166.767,49.895 166.633,49.958 166.513,50.032C166.392,50.105 166.29,50.187 166.201,50.277C166.112,50.366 166.038,50.445 165.978,50.515L165.978,56.012L164.773,56.012L164.773,48.88L165.873,48.88L165.873,49.682L165.904,49.682C165.953,49.603 166.028,49.508 166.125,49.393C166.225,49.279 166.349,49.17 166.498,49.065C166.646,48.962 166.821,48.875 167.017,48.805C167.216,48.736 167.437,48.702 167.687,48.702C168.499,48.702 169.073,49.018 169.41,49.653C169.478,49.554 169.573,49.448 169.694,49.332C169.81,49.219 169.95,49.115 170.107,49.021C170.267,48.928 170.446,48.85 170.643,48.792C170.841,48.731 171.06,48.702 171.298,48.702C172.744,48.702 173.467,49.543 173.467,51.227L173.467,56.012L172.263,56.012L172.263,51.42C172.263,50.837 172.159,50.416 171.952,50.158C171.744,49.9 171.437,49.771 171.029,49.771C170.693,49.771 170.414,49.853 170.191,50.016C169.966,50.18 169.791,50.336 169.664,50.485C169.682,50.595 169.698,50.71 169.708,50.834C169.717,50.958 169.722,51.09 169.722,51.227L169.722,56.012L168.518,56.012ZM162.932,56.012L161.833,56.012L161.833,55.21L161.802,55.21C161.773,55.269 161.708,55.356 161.611,55.469C161.511,55.584 161.384,55.692 161.23,55.798C161.077,55.901 160.892,55.992 160.673,56.072C160.455,56.151 160.212,56.191 159.947,56.191C159.628,56.191 159.343,56.143 159.089,56.049C158.837,55.955 158.623,55.804 158.443,55.596C158.267,55.388 158.129,55.119 158.034,54.786C157.943,54.454 157.893,54.046 157.893,53.561L157.893,48.88L159.097,48.88L159.097,53.471C159.097,54.066 159.195,54.49 159.387,54.741C159.581,54.994 159.88,55.121 160.287,55.121C160.634,55.121 160.925,55.035 161.163,54.86C161.402,54.687 161.589,54.517 161.728,54.347L161.728,48.88L162.932,48.88L162.932,56.012ZM155.504,47.157C155.254,47.157 155.057,47.077 154.907,46.919C154.758,46.76 154.684,46.553 154.684,46.295C154.684,46.047 154.758,45.844 154.907,45.686C155.057,45.527 155.254,45.448 155.504,45.448C155.74,45.448 155.933,45.527 156.083,45.686C156.232,45.844 156.305,46.047 156.305,46.295C156.305,46.553 156.232,46.76 156.083,46.919C155.933,47.077 155.74,47.157 155.504,47.157ZM156.097,56.012L154.892,56.012L154.892,48.88L156.097,48.88L156.097,56.012ZM153.705,49.934C153.675,49.915 153.61,49.891 153.513,49.861C153.412,49.831 153.278,49.816 153.111,49.816C152.735,49.816 152.439,49.918 152.226,50.12C152.013,50.324 151.862,50.545 151.773,50.782L151.773,56.012L150.57,56.012L150.57,48.88L151.669,48.88L151.669,49.846L151.697,49.846C151.749,49.708 151.812,49.571 151.892,49.437C151.97,49.303 152.071,49.185 152.189,49.08C152.31,48.977 152.45,48.895 152.612,48.836C152.776,48.776 152.972,48.746 153.2,48.746C153.369,48.746 153.504,48.761 153.608,48.792C153.711,48.82 153.793,48.846 153.852,48.864L153.705,49.934ZM146.707,49.682C146.281,49.682 145.939,49.861 145.682,50.218C145.423,50.574 145.274,51.09 145.234,51.762L147.835,51.762C147.845,51.713 147.854,51.641 147.859,51.547C147.863,51.452 147.867,51.352 147.867,51.242C147.867,50.747 147.766,50.364 147.567,50.091C147.369,49.818 147.082,49.682 146.707,49.682ZM148.965,51.287C148.965,51.595 148.955,51.859 148.934,52.083C148.916,52.304 148.894,52.501 148.875,52.668L145.234,52.668C145.274,53.511 145.455,54.13 145.778,54.526C146.1,54.922 146.563,55.121 147.167,55.121C147.374,55.121 147.563,55.096 147.732,55.047C147.9,54.997 148.043,54.937 148.169,54.868C148.292,54.8 148.399,54.73 148.481,54.659C148.566,54.591 148.628,54.535 148.668,54.497L149.113,55.343C149.063,55.393 148.988,55.465 148.89,55.559C148.792,55.653 148.658,55.747 148.488,55.841C148.321,55.935 148.113,56.017 147.867,56.087C147.619,56.156 147.326,56.191 146.988,56.191C146.544,56.191 146.141,56.117 145.778,55.968C145.417,55.819 145.11,55.589 144.856,55.277C144.604,54.965 144.408,54.569 144.269,54.088C144.13,53.607 144.062,53.031 144.062,52.357C144.062,51.723 144.132,51.176 144.276,50.715C144.42,50.255 144.617,49.875 144.864,49.579C145.112,49.281 145.397,49.061 145.725,48.918C146.051,48.774 146.405,48.702 146.782,48.702C147.463,48.702 148,48.918 148.387,49.348C148.772,49.779 148.965,50.425 148.965,51.287ZM143.125,49.861L141.565,49.861L141.565,53.813C141.565,54.319 141.629,54.662 141.758,54.845C141.886,55.029 142.105,55.121 142.412,55.121C142.591,55.121 142.745,55.096 142.873,55.047C143.001,54.997 143.095,54.951 143.155,54.913L143.318,55.879C143.27,55.918 143.15,55.98 142.961,56.064C142.773,56.147 142.52,56.191 142.205,56.191C141.591,56.191 141.129,56.019 140.822,55.678C140.514,55.336 140.361,54.769 140.361,53.977L140.361,49.861L139.5,49.861L139.5,49.058L140.361,48.88L140.496,46.889L141.565,46.889L141.565,48.88L143.275,48.88L143.125,49.861ZM137.953,50.322C137.875,50.233 137.733,50.111 137.525,49.958C137.315,49.803 137.042,49.726 136.707,49.726C136.389,49.726 136.147,49.801 135.978,49.95C135.809,50.098 135.726,50.277 135.726,50.485C135.726,50.753 135.802,50.972 135.956,51.146C136.11,51.319 136.343,51.505 136.662,51.703L137.109,51.97C137.593,52.257 137.974,52.567 138.251,52.899C138.528,53.232 138.667,53.659 138.667,54.184C138.667,54.749 138.471,55.224 138.08,55.612C137.689,55.998 137.127,56.191 136.394,56.191C136.107,56.191 135.855,56.161 135.637,56.101C135.418,56.042 135.228,55.972 135.065,55.893C134.901,55.813 134.764,55.727 134.656,55.635C134.547,55.54 134.458,55.453 134.388,55.373L134.968,54.423C135.028,54.482 135.1,54.551 135.183,54.63C135.268,54.71 135.369,54.786 135.489,54.86C135.607,54.935 135.742,54.997 135.889,55.047C136.037,55.096 136.211,55.121 136.409,55.121C136.764,55.121 137.038,55.042 137.226,54.883C137.415,54.725 137.508,54.531 137.508,54.303C137.508,54.135 137.487,53.989 137.44,53.865C137.396,53.741 137.332,53.63 137.242,53.531C137.152,53.432 137.042,53.338 136.913,53.248C136.787,53.16 136.637,53.06 136.469,52.952L136.023,52.668C135.578,52.382 135.228,52.08 134.974,51.762C134.722,51.445 134.596,51.04 134.596,50.545C134.596,50.277 134.649,50.032 134.751,49.809C134.857,49.586 135.001,49.393 135.19,49.229C135.378,49.065 135.6,48.937 135.852,48.844C136.105,48.749 136.375,48.702 136.662,48.702C136.941,48.702 137.176,48.729 137.375,48.783C137.573,48.838 137.745,48.907 137.889,48.992C138.032,49.075 138.15,49.16 138.244,49.245C138.336,49.328 138.417,49.4 138.474,49.459L137.953,50.322ZM132.441,47.157C132.194,47.157 131.998,47.077 131.847,46.919C131.698,46.76 131.624,46.553 131.624,46.295C131.624,46.047 131.698,45.844 131.847,45.686C131.998,45.527 132.194,45.448 132.441,45.448C132.678,45.448 132.873,45.527 133.024,45.686C133.171,45.844 133.244,46.047 133.244,46.295C133.244,46.553 133.171,46.76 133.024,46.919C132.873,47.077 132.678,47.157 132.441,47.157ZM133.038,56.012L131.833,56.012L131.833,48.88L133.038,48.88L133.038,56.012ZM128.83,56.012L128.83,51.42C128.83,50.816 128.731,50.384 128.528,50.12C128.325,49.858 128.014,49.726 127.597,49.726C127.241,49.726 126.944,49.816 126.708,49.995C126.468,50.173 126.282,50.346 126.141,50.515L126.141,56.012L124.939,56.012L124.939,48.88L126.039,48.88L126.039,49.682L126.068,49.682C126.097,49.622 126.163,49.536 126.259,49.423C126.359,49.308 126.489,49.199 126.647,49.095C126.806,48.992 126.993,48.9 127.211,48.82C127.43,48.741 127.678,48.702 127.955,48.702C128.272,48.702 128.558,48.749 128.815,48.844C129.073,48.937 129.291,49.088 129.47,49.296C129.647,49.505 129.789,49.774 129.888,50.105C129.985,50.438 130.034,50.845 130.034,51.332L130.034,56.012L128.83,56.012ZM122.5,47.157C122.254,47.157 122.056,47.077 121.908,46.919C121.758,46.76 121.684,46.553 121.684,46.295C121.684,46.047 121.758,45.844 121.908,45.686C122.056,45.527 122.254,45.448 122.5,45.448C122.738,45.448 122.934,45.527 123.083,45.686C123.229,45.844 123.303,46.047 123.303,46.295C123.303,46.553 123.229,46.76 123.083,46.919C122.934,47.077 122.738,47.157 122.5,47.157ZM123.096,56.012L121.894,56.012L121.894,48.88L123.096,48.88L123.096,56.012ZM115.147,56.012L115.147,51.42C115.147,50.837 115.062,50.416 114.893,50.158C114.725,49.9 114.453,49.771 114.076,49.771C113.878,49.771 113.703,49.797 113.549,49.846C113.396,49.895 113.259,49.958 113.139,50.032C113.022,50.105 112.917,50.187 112.828,50.277C112.739,50.366 112.664,50.445 112.606,50.515L112.606,56.012L111.403,56.012L111.403,48.88L112.5,48.88L112.5,49.682L112.532,49.682C112.581,49.603 112.654,49.508 112.754,49.393C112.854,49.279 112.977,49.17 113.126,49.065C113.274,48.962 113.447,48.875 113.647,48.805C113.844,48.736 114.067,48.702 114.314,48.702C115.126,48.702 115.701,49.018 116.038,49.653C116.107,49.554 116.203,49.448 116.319,49.332C116.439,49.219 116.576,49.115 116.737,49.021C116.894,48.928 117.072,48.85 117.271,48.792C117.467,48.731 117.688,48.702 117.924,48.702C119.372,48.702 120.092,49.543 120.092,51.227L120.092,56.012L118.89,56.012L118.89,51.42C118.89,50.837 118.787,50.416 118.578,50.158C118.371,49.9 118.064,49.771 117.658,49.771C117.322,49.771 117.042,49.853 116.818,50.016C116.595,50.18 116.418,50.336 116.291,50.485C116.31,50.595 116.325,50.71 116.335,50.834C116.345,50.958 116.35,51.09 116.35,51.227L116.35,56.012L115.147,56.012ZM109.278,50.322C109.199,50.233 109.053,50.111 108.847,49.958C108.638,49.803 108.367,49.726 108.029,49.726C107.714,49.726 107.47,49.801 107.301,49.95C107.133,50.098 107.05,50.277 107.05,50.485C107.05,50.753 107.125,50.972 107.28,51.146C107.433,51.319 107.667,51.505 107.985,51.703L108.431,51.97C108.917,52.257 109.297,52.567 109.575,52.899C109.853,53.232 109.991,53.659 109.991,54.184C109.991,54.749 109.795,55.224 109.405,55.612C109.013,55.998 108.45,56.191 107.719,56.191C107.43,56.191 107.179,56.161 106.96,56.101C106.742,56.042 106.551,55.972 106.387,55.893C106.224,55.813 106.087,55.727 105.979,55.635C105.871,55.54 105.781,55.453 105.711,55.373L106.291,54.423C106.351,54.482 106.422,54.551 106.507,54.63C106.592,54.71 106.693,54.786 106.812,54.86C106.931,54.935 107.064,54.997 107.212,55.047C107.362,55.096 107.534,55.121 107.733,55.121C108.088,55.121 108.362,55.042 108.547,54.883C108.737,54.725 108.833,54.531 108.833,54.303C108.833,54.135 108.808,53.989 108.765,53.865C108.72,53.741 108.653,53.63 108.564,53.531C108.474,53.432 108.367,53.338 108.238,53.248C108.109,53.16 107.961,53.06 107.792,52.952L107.347,52.668C106.9,52.382 106.551,52.08 106.299,51.762C106.046,51.445 105.919,51.04 105.919,50.545C105.919,50.277 105.971,50.032 106.076,49.809C106.179,49.586 106.326,49.393 106.515,49.229C106.702,49.065 106.923,48.937 107.175,48.844C107.428,48.749 107.699,48.702 107.985,48.702C108.262,48.702 108.5,48.729 108.698,48.783C108.896,48.838 109.066,48.907 109.209,48.992C109.354,49.075 109.473,49.16 109.568,49.245C109.662,49.328 109.738,49.4 109.798,49.459L109.278,50.322ZM102.338,49.682C101.913,49.682 101.571,49.861 101.314,50.218C101.055,50.574 100.908,51.09 100.868,51.762L103.469,51.762C103.479,51.713 103.485,51.641 103.49,51.547C103.495,51.452 103.498,51.352 103.498,51.242C103.498,50.747 103.399,50.364 103.2,50.091C103.002,49.818 102.715,49.682 102.338,49.682ZM104.598,51.287C104.598,51.595 104.587,51.859 104.567,52.083C104.547,52.304 104.528,52.501 104.509,52.668L100.868,52.668C100.908,53.511 101.089,54.13 101.41,54.526C101.732,54.922 102.196,55.121 102.799,55.121C103.007,55.121 103.196,55.096 103.363,55.047C103.532,54.997 103.678,54.937 103.802,54.868C103.926,54.8 104.031,54.73 104.116,54.659C104.199,54.591 104.26,54.535 104.3,54.497L104.745,55.343C104.696,55.393 104.622,55.465 104.523,55.559C104.425,55.653 104.291,55.747 104.123,55.841C103.954,55.935 103.745,56.017 103.498,56.087C103.25,56.156 102.958,56.191 102.621,56.191C102.175,56.191 101.771,56.117 101.41,55.968C101.048,55.819 100.742,55.589 100.489,55.277C100.237,54.965 100.041,54.569 99.901,54.088C99.763,53.607 99.693,53.031 99.693,52.357C99.693,51.723 99.765,51.176 99.909,50.715C100.053,50.255 100.248,49.875 100.496,49.579C100.743,49.281 101.032,49.061 101.358,48.918C101.684,48.774 102.037,48.702 102.413,48.702C103.097,48.702 103.632,48.918 104.018,49.348C104.404,49.779 104.598,50.425 104.598,51.287ZM95.637,55.121C95.825,55.121 95.993,55.096 96.142,55.047C96.292,54.997 96.42,54.935 96.529,54.86C96.637,54.786 96.73,54.71 96.804,54.63C96.878,54.551 96.935,54.482 96.974,54.423L96.974,50.024C96.866,49.955 96.739,49.895 96.595,49.846C96.452,49.797 96.271,49.771 96.053,49.771C95.776,49.771 95.516,49.818 95.273,49.913C95.031,50.007 94.819,50.163 94.642,50.38C94.463,50.599 94.322,50.882 94.217,51.227C94.114,51.574 94.062,52 94.062,52.506C94.062,53.001 94.104,53.415 94.189,53.746C94.272,54.078 94.389,54.345 94.537,54.549C94.686,54.752 94.855,54.897 95.043,54.987C95.231,55.076 95.429,55.121 95.637,55.121ZM92.814,52.551C92.814,51.827 92.908,51.222 93.097,50.737C93.285,50.253 93.527,49.861 93.824,49.563C94.122,49.266 94.459,49.056 94.835,48.932C95.211,48.808 95.587,48.746 95.964,48.746C96.191,48.746 96.39,48.764 96.558,48.799C96.727,48.833 96.866,48.875 96.974,48.926L96.974,45.508L98.178,45.374L98.178,56.012L97.079,56.012L97.079,55.255L97.049,55.255C97.02,55.314 96.964,55.395 96.886,55.499C96.806,55.604 96.697,55.707 96.558,55.811C96.42,55.915 96.246,56.006 96.039,56.079C95.83,56.153 95.587,56.191 95.31,56.191C94.974,56.191 94.654,56.124 94.351,55.99C94.05,55.856 93.785,55.644 93.556,55.351C93.329,55.058 93.148,54.682 93.014,54.222C92.881,53.761 92.814,53.204 92.814,52.551ZM90.139,56.012L90.139,51.42C90.139,50.816 90.038,50.384 89.835,50.12C89.631,49.858 89.322,49.726 88.906,49.726C88.549,49.726 88.252,49.816 88.014,49.995C87.777,50.173 87.589,50.346 87.45,50.515L87.45,56.012L86.246,56.012L86.246,48.88L87.346,48.88L87.346,49.682L87.376,49.682C87.405,49.622 87.469,49.536 87.569,49.423C87.668,49.308 87.796,49.199 87.955,49.095C88.113,48.992 88.302,48.9 88.52,48.82C88.738,48.741 88.985,48.702 89.263,48.702C89.58,48.702 89.867,48.749 90.125,48.844C90.382,48.937 90.601,49.088 90.778,49.296C90.957,49.505 91.095,49.774 91.193,50.105C91.293,50.438 91.343,50.845 91.343,51.332L91.343,56.012L90.139,56.012ZM84.404,56.012L83.304,56.012L83.304,55.21L83.275,55.21C83.245,55.269 83.181,55.356 83.081,55.469C82.982,55.584 82.857,55.692 82.703,55.798C82.549,55.901 82.363,55.992 82.145,56.072C81.928,56.151 81.685,56.191 81.417,56.191C81.1,56.191 80.815,56.143 80.564,56.049C80.31,55.955 80.095,55.804 79.916,55.596C79.737,55.388 79.602,55.119 79.508,54.786C79.413,54.454 79.367,54.046 79.367,53.561L79.367,48.88L80.57,48.88L80.57,53.471C80.57,54.066 80.667,54.49 80.859,54.741C81.053,54.994 81.353,55.121 81.759,55.121C82.106,55.121 82.398,55.035 82.636,54.86C82.874,54.687 83.061,54.517 83.201,54.347L83.201,48.88L84.404,48.88L84.404,56.012ZM76.439,53.144C76.439,52.59 76.258,52.152 75.897,51.829C75.535,51.507 75.018,51.346 74.345,51.346L73.468,51.346L73.468,54.942L74.271,54.942C75.033,54.942 75.585,54.791 75.927,54.49C76.269,54.186 76.439,53.738 76.439,53.144ZM76.247,48.419C76.247,47.943 76.078,47.553 75.74,47.245C75.404,46.939 74.874,46.784 74.151,46.784L73.468,46.784L73.468,50.322L74.136,50.322C74.83,50.322 75.355,50.154 75.711,49.816C76.069,49.48 76.247,49.013 76.247,48.419ZM77.554,48.375C77.554,48.731 77.509,49.043 77.42,49.312C77.331,49.579 77.21,49.809 77.057,50.002C76.902,50.195 76.725,50.351 76.521,50.47C76.319,50.589 76.108,50.678 75.89,50.737L75.89,50.767C76.157,50.816 76.408,50.91 76.64,51.05C76.874,51.188 77.077,51.361 77.249,51.57C77.423,51.777 77.562,52.022 77.666,52.304C77.769,52.588 77.821,52.897 77.821,53.235C77.821,53.64 77.752,54.011 77.614,54.347C77.476,54.684 77.259,54.977 76.966,55.224C76.675,55.471 76.307,55.666 75.86,55.804C75.415,55.942 74.884,56.012 74.271,56.012L72.176,56.012L72.176,45.761L74.151,45.761C74.755,45.761 75.273,45.822 75.705,45.946C76.135,46.069 76.489,46.244 76.766,46.473C77.043,46.7 77.244,46.975 77.368,47.297C77.491,47.62 77.554,47.979 77.554,48.375Z" style="fill:rgb(35,31,32);fill-rule:nonzero;"/>
        <path d="M61.013,95.967L62.885,95.967L62.885,120.939L58.515,120.939L58.515,95.967L61.013,95.967Z" style="fill:rgb(244,207,0);fill-rule:nonzero;"/>
        <path d="M61.013,70.872L62.885,70.872L62.885,95.967L58.515,95.967L58.515,70.872L61.013,70.872Z" style="fill:rgb(237,28,36);fill-rule:nonzero;"/>
        <path d="M39.378,55.186C39.411,54.907 39.431,54.619 39.431,54.323C39.431,54.163 39.432,53.976 39.412,53.764C41.9,53.728 44.084,51.936 44.084,49.874C44.084,48.824 43.399,48.033 43.013,47.56C43.1,47.542 43.187,47.521 43.275,47.499C43.64,47.816 44.674,48.943 44.674,50.366C44.674,52.84 42.201,55.135 39.378,55.186ZM36.87,46.572C36.824,46.297 36.719,46.047 36.56,45.832C36.567,45.58 36.671,45.339 37.077,45.537C36.857,45.763 37.027,46.16 37.027,46.16C37.027,46.16 37.477,45.951 37.383,45.655C38.05,45.815 37.571,46.71 36.87,46.572ZM36.292,47.842C36.202,47.472 36.014,47.094 35.772,46.807C35.552,46.548 35.189,46.24 34.701,46.24C34.477,46.24 34.102,46.344 33.865,46.444C33.774,46.283 33.601,45.892 33.601,45.715C33.601,45.534 33.907,45.351 34.492,45.351C35.78,45.351 36.551,45.933 36.551,46.91C36.551,47.253 36.415,47.565 36.292,47.842ZM39.601,64.449C39.75,64.449 39.824,64.473 39.91,64.505C40.281,65.515 41.71,67.418 41.77,67.5L41.784,67.516L41.806,67.511C42.155,67.456 43.05,67.321 43.8,67.321L43.818,67.321C43.899,67.321 43.99,67.321 44.05,67.378C44.098,67.427 44.122,67.511 44.122,67.633C44.122,67.82 44.043,68.138 43.949,68.274C43.687,67.987 43.26,67.859 42.579,67.859C42.374,67.859 42.132,67.921 42.001,67.954L41.947,67.967L41.886,67.983L42.28,68.376C42.886,68.982 43.411,69.506 43.411,69.854C43.411,70.064 43.206,70.337 43.018,70.459C42.978,69.82 42.332,68.968 41.705,68.489L41.651,68.449L41.641,68.672C41.632,68.825 41.618,69.055 41.618,69.298C41.618,70.514 41.495,70.698 41.074,70.698C41.009,70.698 40.91,70.679 40.849,70.656C41.087,70.364 41.18,69.976 41.18,69.297L41.176,68.984L41.172,68.732C41.172,68.453 41.203,68.247 41.224,68.081L41.236,67.987L41.17,67.979C40.973,67.951 40.607,67.901 40.327,67.901C39.727,67.901 39.321,67.956 39.024,68.234C38.83,68.077 38.63,67.805 38.63,67.634C38.63,67.38 38.789,67.361 38.995,67.361C39.1,67.361 39.197,67.376 39.333,67.392C39.591,67.43 39.98,67.488 40.779,67.488L40.829,67.488L40.814,67.438C40.611,66.858 40.054,66.015 39.16,64.93C39.242,64.639 39.321,64.449 39.601,64.449ZM31.892,67.438L31.876,67.488L31.926,67.488C32.725,67.488 33.114,67.43 33.372,67.392C33.508,67.376 33.606,67.361 33.71,67.361C33.916,67.361 34.075,67.38 34.075,67.634C34.075,67.805 33.874,68.077 33.68,68.234C33.385,67.956 32.978,67.901 32.378,67.901C32.098,67.901 31.731,67.951 31.535,67.979L31.503,67.983L31.468,67.987L31.48,68.081C31.503,68.247 31.532,68.453 31.532,68.732L31.528,68.984L31.525,69.297C31.525,69.976 31.619,70.364 31.856,70.656C31.795,70.679 31.695,70.698 31.631,70.698C31.209,70.698 31.086,70.514 31.086,69.298C31.086,69.055 31.073,68.825 31.064,68.672L31.053,68.448L30.999,68.489C30.373,68.968 29.727,69.82 29.689,70.459C29.5,70.337 29.295,70.064 29.295,69.854C29.295,69.506 29.819,68.982 30.426,68.376L30.775,68.028L30.818,67.983L30.704,67.954C30.574,67.921 30.332,67.859 30.126,67.859C29.444,67.859 29.02,67.987 28.756,68.274C28.662,68.138 28.583,67.82 28.583,67.633C28.583,67.511 28.607,67.427 28.654,67.378C28.714,67.321 28.807,67.321 28.887,67.321L28.904,67.321C29.655,67.321 30.55,67.456 30.9,67.511L30.921,67.516L30.935,67.5C30.994,67.418 32.424,65.515 32.795,64.505C32.88,64.473 32.955,64.449 33.104,64.449C33.385,64.449 33.463,64.639 33.545,64.93C32.65,66.015 32.095,66.858 31.892,67.438ZM28.032,50.366C28.032,48.943 29.065,47.816 29.43,47.499C29.517,47.521 29.606,47.542 29.692,47.56C29.305,48.033 28.622,48.824 28.622,49.874C28.622,51.956 30.848,53.765 33.366,53.765C33.35,53.943 33.342,54.131 33.342,54.323C33.342,54.63 33.358,54.917 33.39,55.186C30.54,55.17 28.032,52.857 28.032,50.366ZM47.143,54.753C48.421,56.774 49.421,56.74 50.932,56.74C49.682,55.782 48.855,54.555 48.461,53.928L46.127,50.192C45.897,49.038 45.301,47.96 44.408,47.157C44.708,47.043 44.958,46.923 45.109,46.81C43.584,46.81 42.073,46.036 41.241,46.036C40.707,46.036 40.363,46.355 40.363,46.778C40.398,47.248 40.882,47.727 41.777,47.727C41.98,47.727 42.239,47.7 42.523,47.653C43.009,48.328 43.399,48.938 43.399,49.81C43.399,51.445 41.444,52.72 39.469,52.72C39.358,52.72 39.252,52.717 39.14,52.708C38.96,52.303 38.367,51.621 38.367,50.847C38.367,49.548 39.213,48.486 39.213,47.199C39.213,46.399 38.824,45.904 38.673,45.698C38.917,45.473 39.181,45.195 39.244,45.008C39.103,45.067 38.936,45.075 38.691,45.075C37.745,45.075 36.974,44.829 36.222,44.829C35.793,44.829 35.677,44.962 35.677,45.088C35.677,45.135 35.684,45.181 35.697,45.204C35.537,45.141 35.386,45.1 35.207,45.067C34.986,45.026 34.747,45.004 34.492,45.004C33.579,45.004 33.254,45.386 33.254,45.715C33.254,45.993 33.473,46.501 33.72,46.887C34.077,46.708 34.504,46.586 34.701,46.586C35.185,46.586 35.617,47.048 35.846,47.596C35.519,47.635 35.456,47.65 35.126,47.65C34.236,47.65 33.631,47.331 33.507,47.331C33.495,47.331 33.471,47.337 33.471,47.357C33.471,47.481 33.723,47.811 34.22,47.993C34.875,48.232 35.857,48.332 36.021,48.358C36.021,48.388 35.855,48.698 35.669,48.757C35.63,48.77 35.599,48.772 35.553,48.762C34.869,48.626 34.678,48.57 33.81,48.239C33.783,48.229 33.768,48.246 33.768,48.273C33.768,48.616 34.656,49.375 35.453,49.665C34.788,50.515 33.956,51.383 33.564,52.708C33.454,52.717 33.347,52.72 33.235,52.72C31.261,52.72 29.305,51.445 29.305,49.81C29.305,48.938 29.696,48.328 30.182,47.653C30.466,47.7 30.725,47.727 30.927,47.727C31.823,47.727 32.307,47.248 32.343,46.778C32.343,46.355 31.999,46.036 31.463,46.036C30.632,46.036 29.122,46.81 27.596,46.81C27.747,46.923 27.996,47.043 28.296,47.157C27.403,47.96 26.807,49.038 26.578,50.192L24.244,53.928C23.851,54.555 23.022,55.782 21.772,56.74C23.282,56.74 24.284,56.774 25.562,54.753L26.759,52.837C26.848,53.086 26.958,53.327 27.085,53.565L24.704,57.374C24.309,58.006 23.488,59.223 22.233,60.186C23.742,60.186 24.745,60.221 26.022,58.201L28.072,54.919C28.226,55.082 28.387,55.243 28.558,55.395L25.665,60.026C25.268,60.658 24.451,61.871 23.192,62.835C24.704,62.835 25.706,62.871 26.983,60.849L29.803,56.335C29.988,56.453 30.179,56.567 30.376,56.674L26.935,62.18C26.536,62.814 25.72,64.025 24.462,64.991C25.974,64.991 26.975,65.026 28.253,63.006L31.796,57.332C32.007,57.414 32.219,57.489 32.435,57.559L28.431,63.969C28.04,64.593 27.205,65.824 25.96,66.778C27.471,66.778 28.473,66.812 29.75,64.793L34.019,57.962C34.062,57.969 34.105,57.976 34.147,57.985C34.264,58.355 34.344,58.699 34.344,59.042C34.344,61.189 32.936,63.085 31.246,64.548C31.353,64.596 31.542,64.611 31.716,64.611C32.065,64.611 32.291,64.593 32.449,64.565C32.056,65.454 31.215,66.605 30.79,67.199C30.237,67.1 29.432,67.021 28.904,67.021C28.354,67.021 28.291,67.345 28.291,67.633C28.291,68.134 28.524,68.532 28.798,68.755C28.9,68.499 29.106,68.157 30.126,68.157C30.144,68.157 30.181,68.159 30.228,68.162C29.929,68.494 28.997,69.247 28.997,69.854C28.997,70.257 29.438,70.859 30.02,70.859C29.984,70.73 29.989,70.611 29.989,70.521C29.989,70.029 30.425,69.453 30.793,69.052C30.782,69.172 30.788,69.16 30.788,69.298C30.788,70.462 30.893,70.996 31.631,70.996C31.993,70.996 32.243,70.798 32.329,70.738C31.849,70.296 31.825,69.949 31.825,69.297C31.826,69.128 31.826,68.962 31.829,68.733C31.83,68.584 31.828,68.386 31.804,68.243C32.068,68.207 32.175,68.207 32.378,68.207C32.378,68.207 33.426,68.125 33.679,68.668C33.964,68.407 34.377,68.04 34.377,67.634C34.377,67.365 34.25,67.062 33.71,67.062C33.505,67.062 32.862,67.188 32.324,67.188C32.468,66.865 33.112,65.924 33.67,65.241C33.754,65.506 33.886,65.793 34.178,66.027C34.218,65.588 34.477,64.198 35.163,63.386C35.244,63.934 35.352,64.498 35.352,65.685C35.352,68.574 34.656,70.708 33.182,71.115C33.373,71.449 33.779,71.749 34.201,71.749C34.739,71.749 35.034,71.139 35.333,70.565C35.489,70.989 35.92,72.03 36.353,72.03C36.784,72.03 37.215,70.989 37.371,70.565C37.67,71.139 37.965,71.749 38.504,71.749C38.924,71.749 39.332,71.449 39.523,71.115C38.049,70.708 37.353,68.574 37.353,65.685C37.353,64.498 37.461,63.934 37.541,63.386C38.229,64.198 38.487,65.588 38.526,66.027C38.818,65.793 38.95,65.506 39.036,65.241C39.592,65.924 40.236,66.865 40.381,67.188C39.843,67.188 39.199,67.062 38.995,67.062C38.455,67.062 38.329,67.365 38.329,67.634C38.329,68.04 38.741,68.407 39.025,68.668C39.278,68.125 40.327,68.207 40.327,68.207C40.53,68.207 40.637,68.207 40.901,68.243C40.877,68.386 40.876,68.584 40.877,68.733C40.879,68.962 40.879,69.128 40.88,69.297C40.88,69.949 40.856,70.296 40.376,70.738C40.462,70.798 40.712,70.996 41.074,70.996C41.812,70.996 41.918,70.462 41.918,69.298C41.918,69.16 41.922,69.172 41.913,69.052C42.28,69.453 42.716,70.029 42.716,70.521C42.716,70.611 42.721,70.73 42.685,70.859C43.268,70.859 43.709,70.257 43.709,69.854C43.709,69.247 42.776,68.494 42.477,68.162C42.525,68.159 42.56,68.157 42.579,68.157C43.599,68.157 43.804,68.499 43.907,68.755C44.179,68.532 44.414,68.134 44.414,67.633C44.414,67.345 44.353,67.021 43.8,67.021C43.273,67.021 42.469,67.1 41.914,67.199C41.489,66.605 40.649,65.454 40.256,64.565C40.414,64.593 40.64,64.611 40.989,64.611C41.164,64.611 41.351,64.596 41.46,64.548C39.77,63.085 38.36,61.189 38.36,59.042C38.36,58.699 38.442,58.355 38.557,57.985C38.6,57.976 38.645,57.969 38.687,57.962L42.955,64.793C44.232,66.812 45.234,66.778 46.744,66.778C45.5,65.824 44.665,64.593 44.275,63.969L40.269,57.559C40.486,57.489 40.699,57.414 40.908,57.332L44.452,63.006C45.73,65.026 46.731,64.991 48.243,64.991C46.985,64.025 46.169,62.814 45.772,62.18L42.33,56.674C42.525,56.567 42.716,56.453 42.901,56.335L45.722,60.849C47,62.871 48.001,62.835 49.511,62.835C48.254,61.871 47.438,60.658 47.04,60.026L44.147,55.395C44.318,55.243 44.48,55.082 44.632,54.919L46.682,58.201C47.96,60.221 48.961,60.186 50.472,60.186C49.216,59.223 48.397,58.006 48.001,57.374L45.62,53.565C45.748,53.327 45.857,53.086 45.945,52.837L47.143,54.753Z" style="fill:rgb(35,31,32);fill-rule:nonzero;"/>
        <path d="M62.885,46.025L62.885,70.996L61.013,70.996L58.515,70.996L58.515,46.025L62.885,46.025Z" style="fill:rgb(35,31,32);fill-rule:nonzero;"/>
        <path d="M75.051,16.366C75.051,15.623 74.744,15.219 73.931,15.219C73.677,15.219 72.768,15.263 72.768,16.585L72.768,18.72C72.768,20.102 73.169,20.452 73.931,20.452C74.509,20.452 74.893,20.295 75.06,20.173L75.06,18.282L73.896,18.282L73.896,17.583L75.864,17.583L75.864,20.654C75.349,20.934 74.744,21.126 73.931,21.126C72.592,21.126 71.944,20.434 71.944,18.684L71.944,16.611C71.944,15.351 72.592,14.546 73.931,14.546C75.296,14.546 75.943,15.046 75.891,16.366L75.051,16.366Z" style="fill:rgb(35,31,32);fill-rule:nonzero;"/>
        <path d="M77.369,20.995L77.369,14.678L80.624,14.678L80.624,15.378L78.174,15.378L78.174,17.407L80.449,17.407L80.449,18.107L78.174,18.107L78.174,20.295L80.677,20.295L80.677,20.995L77.369,20.995Z" style="fill:rgb(35,31,32);fill-rule:nonzero;"/>
        <path d="M81.684,20.995L81.684,14.678L84.815,14.678L84.815,15.378L82.488,15.378L82.488,17.407L84.693,17.407L84.693,18.107L82.488,18.107L82.488,20.995L81.684,20.995Z" style="fill:rgb(35,31,32);fill-rule:nonzero;"/>
        <path d="M88.779,13.933L87.957,13.933L87.957,13.024L88.779,13.024L88.779,13.933ZM88.753,18.72L88.753,16.585C88.753,15.263 87.843,15.219 87.59,15.219C87.336,15.219 86.426,15.263 86.426,16.585L86.426,18.72C86.426,20.102 86.828,20.452 87.59,20.452C88.351,20.452 88.753,20.102 88.753,18.72ZM87.239,13.933L86.417,13.933L86.417,13.024L87.239,13.024L87.239,13.933ZM85.603,18.684L85.603,16.611C85.603,15.351 86.25,14.546 87.59,14.546C88.928,14.546 89.575,15.351 89.575,16.611L89.575,18.684C89.575,20.434 88.928,21.126 87.59,21.126C86.25,21.126 85.603,20.434 85.603,18.684Z" style="fill:rgb(35,31,32);fill-rule:nonzero;"/>
        <path d="M91.763,17.39L92.971,17.39C93.548,17.39 93.828,16.891 93.828,16.34C93.828,15.886 93.601,15.378 92.979,15.378L91.763,15.378L91.763,17.39ZM91.763,18.09L91.763,20.995L90.958,20.995L90.958,14.678L93.137,14.678C94.257,14.678 94.65,15.466 94.65,16.253C94.65,16.996 94.239,17.565 93.495,17.696L93.495,17.714C94.222,17.827 94.484,18.073 94.528,19.341C94.536,19.612 94.624,20.601 94.746,20.995L93.906,20.995C93.679,20.557 93.731,19.735 93.662,18.894C93.601,18.125 92.979,18.09 92.708,18.09L91.763,18.09Z" style="fill:rgb(35,31,32);fill-rule:nonzero;"/>
        <path d="M96.663,20.295L97.424,20.295C98.544,20.295 98.955,19.875 98.955,18.405L98.955,17.128C98.955,15.849 98.562,15.378 97.722,15.378L96.663,15.378L96.663,20.295ZM95.857,14.678L97.801,14.678C98.606,14.678 99.184,14.967 99.498,15.639C99.752,16.174 99.778,17.433 99.778,17.635C99.778,18.982 99.655,19.761 99.393,20.181C99.052,20.723 98.413,20.995 97.311,20.995L95.857,20.995L95.857,14.678Z" style="fill:rgb(35,31,32);fill-rule:nonzero;"/>
        <path d="M101.187,20.995L101.187,14.678L104.442,14.678L104.442,15.378L101.992,15.378L101.992,17.407L104.267,17.407L104.267,18.107L101.992,18.107L101.992,20.295L104.495,20.295L104.495,20.995L101.187,20.995Z" style="fill:rgb(35,31,32);fill-rule:nonzero;"/>
        <path d="M106.351,17.39L107.556,17.39C108.134,17.39 108.414,16.891 108.414,16.34C108.414,15.886 108.187,15.378 107.564,15.378L106.351,15.378L106.351,17.39ZM106.351,18.09L106.351,20.995L105.544,20.995L105.544,14.678L107.722,14.678C108.843,14.678 109.236,15.466 109.236,16.253C109.236,16.996 108.826,17.565 108.082,17.696L108.082,17.714C108.806,17.827 109.07,18.073 109.113,19.341C109.123,19.612 109.21,20.601 109.333,20.995L108.494,20.995C108.265,20.557 108.318,19.735 108.248,18.894C108.187,18.125 107.564,18.09 107.294,18.09L106.351,18.09Z" style="fill:rgb(35,31,32);fill-rule:nonzero;"/>
        <path d="M113.97,14.678L113.97,15.378L112.308,15.378L112.308,20.995L111.503,20.995L111.503,15.378L109.839,15.378L109.839,14.678L113.97,14.678Z" style="fill:rgb(35,31,32);fill-rule:nonzero;"/>
        <path d="M118.941,20.995L117.978,20.995L116.15,14.678L117.023,14.678L118.468,20.234L118.484,20.234L119.962,14.678L120.787,14.678L118.941,20.995Z" style="fill:rgb(35,31,32);fill-rule:nonzero;"/>
        <path d="M124.732,18.72L124.732,16.585C124.732,15.263 123.824,15.219 123.57,15.219C123.316,15.219 122.406,15.263 122.406,16.585L122.406,18.72C122.406,20.102 122.808,20.452 123.57,20.452C124.33,20.452 124.732,20.102 124.732,18.72ZM121.583,18.684L121.583,16.611C121.583,15.351 122.23,14.546 123.57,14.546C124.908,14.546 125.554,15.351 125.554,16.611L125.554,18.684C125.554,20.434 124.908,21.126 123.57,21.126C122.23,21.126 121.583,20.434 121.583,18.684Z" style="fill:rgb(35,31,32);fill-rule:nonzero;"/>
        <path d="M127.716,20.995L126.964,20.995L126.964,14.678L128.267,14.678L129.858,19.98L129.878,19.98L131.488,14.678L132.818,14.678L132.818,20.995L132.013,20.995L132.013,15.378L131.994,15.378L130.228,20.995L129.466,20.995L127.734,15.378L127.716,15.378L127.716,20.995Z" style="fill:rgb(35,31,32);fill-rule:nonzero;"/>
    </g>
</svg>