<?xml version="1.0" encoding="UTF-8"?>
<!DOCTYPE svg PUBLIC "-//W3C//DTD SVG 1.1//EN" "http://www.w3.org/Graphics/SVG/1.1/DTD/svg11.dtd">
<!-- Creator: CorelDRAW 2018 (64-Bit) -->
<svg xmlns="http://www.w3.org/2000/svg" xml:space="preserve" width="7398px" height="3000px" version="1.1" style="shape-rendering:geometricPrecision; text-rendering:geometricPrecision; image-rendering:optimizeQuality; fill-rule:evenodd; clip-rule:evenodd"
viewBox="0 0 7398 2999.963"
 xmlns:xlink="http://www.w3.org/1999/xlink">
 <defs>
  <style type="text/css">
   <![CDATA[
    .fil0 {fill:none}
    .fil2 {fill:#168CF9}
    .fil1 {fill:#040722;fill-rule:nonzero}
   ]]>
  </style>
 </defs>
 <g id="Layer_x0020_1">
  <metadata id="CorelCorpID_0Corel-Layer"/>
  <rect class="fil0" width="7398" height="2999.963"/>
  <g id="_2113650967168">
   <path class="fil1" d="M2878.081 1430.77c190.969,0 346.022,-148.921 346.022,-332.882 0,-182.209 -155.053,-332.006 -346.022,-332.006 -190.093,0 -344.27,149.797 -344.27,332.006 0,183.961 154.177,332.882 344.27,332.882zm0 -538.743c114.757,0 206.738,96.361 206.738,205.861 0,110.377 -91.981,207.613 -206.738,207.613 -113.881,0 -206.737,-97.236 -206.737,-207.613 0,-109.5 92.856,-205.861 206.737,-205.861z"/>
   <path id="1" class="fil1" d="M3412.935 936.703l-129.648 0 0 636.856 129.648 0 0 -204.986c24.529,32.413 76.213,60.445 146.293,60.445 152.425,0 241.778,-113.005 241.778,-251.414 0,-138.408 -89.353,-251.413 -241.778,-251.413 -68.328,0 -126.144,31.536 -146.293,58.692l0 -48.18zm-5.255 240.901c0,-84.096 50.808,-135.78 132.276,-135.78 80.593,0 132.277,59.568 132.277,135.78 0,78.841 -49.056,136.657 -132.277,136.657 -81.468,0 -132.276,-56.94 -132.276,-136.657z"/>
   <path id="2" class="fil1" d="M4101.091 1430.77c141.037,0 205.861,-85.849 225.133,-112.129l-101.616 -58.692c-14.893,16.644 -50.809,56.064 -123.517,56.064 -26.28,0 -115.633,-8.76 -131.401,-87.6l380.186 0c0,0 2.628,-23.653 2.628,-60.445 -4.38,-155.052 -127.896,-239.149 -251.413,-239.149 -90.229,0 -261.926,52.56 -261.926,250.537 0,197.978 168.193,251.414 261.926,251.414zm-0.876 -387.194c65.7,0 108.624,48.18 113.881,91.98l-240.902 0c5.256,-49.056 51.684,-91.98 127.021,-91.98z"/>
   <path id="3" class="fil1" d="M4670.985 927.943c-42.924,0 -96.36,19.272 -128.772,51.684l0 -42.924 -130.525 0 0 481.803 130.525 0 0 -254.917c-2.628,-105.121 56.064,-127.021 91.98,-127.021 50.808,0 92.857,22.776 92.857,97.236l0 284.702 134.028 0 0 -284.702c0,-125.268 -50.808,-205.861 -190.093,-205.861z"/>
   <path id="4" class="fil1" d="M2610.9 2028.219l-73.585 105.997c59.569,50.808 150.673,99.864 289.082,99.864 151.549,0 254.917,-65.7 254.917,-198.853 0,-171.697 -165.565,-184.837 -269.809,-206.737 -57.817,-12.264 -127.021,-22.776 -127.021,-68.328 0,-50.809 70.08,-63.073 110.377,-63.073 62.196,0 126.145,26.28 181.333,65.7l77.088 -105.12c-70.08,-51.684 -141.037,-85.848 -253.165,-85.848 -113.005,0 -254.042,41.171 -254.042,193.596 0,153.301 173.449,183.086 254.042,196.226 74.46,13.14 142.789,26.28 142.789,77.088 0,35.916 -42.049,70.957 -118.261,70.957 -73.585,0 -167.317,-42.925 -213.745,-81.469z"/>
   <path id="5" class="fil1" d="M3497.032 2221.816l129.649 0 0 -481.803 -129.649 0 0 49.933c-24.528,-32.412 -76.212,-60.445 -146.292,-60.445 -152.425,0 -241.778,113.005 -241.778,251.414 0,138.409 89.353,251.413 241.778,251.413 68.328,0 126.144,-31.536 146.292,-58.692l0 48.18zm5.256 -240.901c0,84.096 -50.808,135.78 -132.276,135.78 -80.593,0 -132.277,-59.568 -132.277,-135.78 0,-78.841 49.056,-136.657 132.277,-136.657 81.468,0 132.276,56.94 132.276,136.657z"/>
   <path id="6" class="fil1" d="M3968.814 1731.253c-42.924,0 -96.36,19.272 -128.772,51.685l0 -42.925 -130.525 0 0 481.803 130.525 0 0 -254.917c-2.628,-105.121 56.064,-127.021 91.98,-127.021 50.808,0 92.857,22.776 92.857,97.236l0 284.702 134.028 0 0 -284.702c0,-125.268 -50.808,-205.861 -190.093,-205.861z"/>
   <path id="7" class="fil1" d="M4480.893 2234.08c110.377,0 186.589,-47.304 233.017,-141.913l-111.252 -43.8c-30.66,49.933 -74.461,70.081 -121.765,70.081 -76.213,0 -132.277,-56.941 -132.277,-135.781 0,-77.965 55.188,-135.781 131.401,-135.781 47.304,0 89.353,23.652 118.261,71.832l118.26 -46.428c-49.056,-90.228 -134.904,-140.161 -236.521,-140.161 -143.665,0 -261.926,112.129 -261.926,250.538 0,138.409 119.137,251.413 262.802,251.413z"/>
   <path id="8" class="fil1" d="M4926.395 1846.886l96.36 0 0 -114.757 -96.36 0 0 -128.772 -129.649 0 0 128.772 -58.692 0 0 114.757 58.692 0 0 267.181c0,101.617 62.196,120.013 163.813,120.013 18.396,0 42.924,-1.752 58.693,-3.504l0 -110.376c-7.885,0.876 -18.397,1.752 -33.289,1.752 -58.692,0 -59.568,-45.553 -59.568,-71.833l0 -203.233z"/>
   <path id="9" class="fil1" d="M5221.224 1618.249c0,-38.545 -32.412,-70.081 -71.832,-70.081 -40.297,0 -73.585,31.536 -73.585,70.081 0,39.42 33.288,70.956 73.585,70.956 39.42,0 71.832,-31.536 71.832,-70.956zm-137.533 603.567l131.401 0 0 -480.927 -131.401 0 0 480.927z"/>
   <path id="10" class="fil1" d="M5537.077 2233.204c143.665,0 262.802,-112.128 262.802,-251.413 0,-137.533 -119.137,-250.538 -262.802,-250.538 -143.665,0 -261.049,113.005 -261.049,250.538 0,139.285 117.384,251.413 261.049,251.413zm0 -387.194c74.461,0 132.277,58.692 132.277,135.781 0,77.964 -57.816,137.533 -132.277,137.533 -75.336,0 -132.277,-57.817 -132.277,-137.533 0,-76.213 58.693,-135.781 132.277,-135.781z"/>
   <path id="11" class="fil1" d="M6119.236 1731.253c-42.924,0 -96.361,19.272 -128.773,51.685l0 -42.925 -130.524 0 0 481.803 130.524 0 0 -254.917c-2.628,-105.121 56.065,-127.021 91.981,-127.021 50.808,0 92.856,22.776 92.856,97.236l0 284.702 134.029 0 0 -284.702c0,-125.268 -50.808,-205.861 -190.093,-205.861z"/>
   <path id="12" class="fil1" d="M6590.143 2233.204c126.144,0 197.977,-56.94 197.977,-156.805 0,-124.393 -110.377,-138.409 -191.846,-152.425 -21.024,-2.627 -91.104,-10.512 -91.104,-42.924 0,-23.652 37.668,-35.916 63.072,-35.916 53.437,0 100.741,23.652 136.657,44.676l68.328 -89.352c-63.072,-47.305 -124.392,-69.205 -200.605,-69.205 -46.428,0 -198.853,11.388 -198.853,152.425 0,120.889 125.269,140.161 190.969,151.549 25.405,4.38 92.857,7.884 92.857,40.296 0,24.528 -28.908,42.925 -69.204,42.925 -57.817,0 -118.261,-26.281 -155.93,-51.685l-68.328 91.105c52.561,42.048 122.641,75.336 226.01,75.336z"/>
   <g>
    <circle class="fil2" transform="matrix(4.66784E-14 1.77402 1.77402 -4.67769E-14 960.842 1120.79)" r="47.499"/>
    <circle class="fil2" transform="matrix(5.16954E-14 -1.94825 1.94825 5.16954E-14 1466.43 805.928)" r="47.499"/>
    <circle class="fil2" cx="1213.636" cy="867.996" r="84.265"/>
    <circle class="fil2" cx="1188.809" cy="1083.55" r="92.541"/>
    <circle class="fil2" transform="matrix(5.68128E-14 2.15917 2.15917 -5.69327E-14 1466.43 1038.46)" r="47.499"/>
    <circle class="fil2" transform="matrix(5.16954E-14 -1.94825 1.94825 5.16954E-14 911.187 1638.79)" r="47.499"/>
    <circle class="fil2" transform="matrix(5.16954E-14 -1.94825 1.94825 5.16954E-14 911.187 1361.17)" r="47.499"/>
    <circle class="fil2" transform="matrix(4.66784E-14 1.77402 1.77402 -4.67769E-14 960.842 1879.17)" r="47.499"/>
    <circle class="fil2" cx="1158.752" cy="1346.143" r="102.56"/>
    <circle class="fil2" transform="matrix(5.72923E-14 -2.15917 2.15917 5.72923E-14 1466.43 1653.82)" r="47.499"/>
    <circle class="fil2" cx="1158.752" cy="1653.821" r="102.56"/>
    <circle class="fil2" transform="matrix(5.72923E-14 -2.15917 2.15917 5.72923E-14 1466.43 1346.14)" r="47.499"/>
    <path class="fil2" d="M1158.752 1346.143l102.559 -0.001c0,-108.693 80.204,-205.141 205.142,-205.141l-0.023 -102.537 -102.536 -0.022c-0.001,103.402 -98.765,205.142 -205.142,205.141l0 102.56z"/>
    <path class="fil2" d="M1774.109 1346.143l0 -102.56c-108.694,0 -205.142,-80.204 -205.142,-205.141l-102.537 0.022 -0.022 102.537c103.402,0 205.142,98.765 205.141,205.141l102.56 0.001z"/>
    <path class="fil2" d="M1158.752 1346.143l0 102.559c108.694,0 205.142,80.204 205.142,205.142l102.536 -0.023 0.023 -102.536c-103.402,-0.001 -205.142,-98.765 -205.142,-205.142l-102.559 0z"/>
    <path class="fil2" d="M1774.109 1653.821l0 -102.559c-108.694,0 -205.142,-80.204 -205.142,-205.142l-102.537 0.023 -0.022 102.536c103.402,0.001 205.142,98.765 205.141,205.142l102.56 0z"/>
    <path class="fil2" d="M1774.109 1653.821l-102.56 0.001c0,108.694 -80.204,205.141 -205.141,205.141l0.022 102.537 102.537 0.022c0,-103.402 98.765,-205.142 205.142,-205.141l0 -102.56z"/>
    <path class="fil2" d="M1158.752 1653.821l0 102.56c108.694,0 205.142,80.204 205.142,205.141l102.536 -0.022 0.023 -102.537c-103.402,0 -205.142,-98.764 -205.142,-205.141l-102.559 -0.001z"/>
    <circle class="fil2" cx="1188.809" cy="1916.414" r="92.541"/>
    <circle class="fil2" transform="matrix(5.68128E-14 2.15917 2.15917 -5.69327E-14 1466.43 1961.5)" r="47.499"/>
    <circle class="fil2" cx="1719.225" cy="867.996" r="84.265"/>
    <circle class="fil2" cx="1744.052" cy="1083.55" r="92.541"/>
    <circle class="fil2" transform="matrix(4.66784E-14 1.77402 1.77402 -4.67769E-14 1972.02 1120.79)" r="47.499"/>
    <circle class="fil2" cx="1774.109" cy="1346.143" r="102.56"/>
    <circle class="fil2" transform="matrix(5.16954E-14 -1.94825 1.94825 5.16954E-14 2021.67 1638.79)" r="47.499"/>
    <circle class="fil2" cx="1774.109" cy="1653.821" r="102.56"/>
    <circle class="fil2" transform="matrix(5.16954E-14 -1.94825 1.94825 5.16954E-14 2021.67 1361.17)" r="47.499"/>
    <circle class="fil2" cx="1744.052" cy="1916.414" r="92.541"/>
    <circle class="fil2" transform="matrix(4.66784E-14 1.77402 1.77402 -4.67769E-14 1972.02 1879.17)" r="47.499"/>
    <circle class="fil2" transform="matrix(5.16954E-14 -1.94825 1.94825 5.16954E-14 1466.43 2194.04)" r="47.499"/>
    <circle class="fil2" cx="1213.636" cy="2131.968" r="84.265"/>
    <circle class="fil2" cx="1719.225" cy="2131.968" r="84.265"/>
    <path class="fil2" d="M1188.809 1083.55l92.54 -0.001c0,-98.075 72.369,-185.101 185.102,-185.101l-0.021 -92.52 -92.519 -0.02c-0.001,93.301 -89.117,185.102 -185.102,185.101l0 92.541z"/>
    <path class="fil2" d="M1744.092 1083.55l-92.541 -0.001c0,-98.075 -72.369,-185.101 -185.101,-185.101l0.02 -92.52 92.52 -0.02c0,93.301 89.117,185.102 185.101,185.101l0.001 92.541z"/>
    <path class="fil2" d="M911.187 1361.171l92.541 0c0,-98.075 72.369,-185.102 185.101,-185.102l-0.02 -92.519 -92.52 -0.02c0,93.3 -89.117,185.101 -185.101,185.101l-0.001 92.54z"/>
    <path class="fil2" d="M1188.809 1916.414l-92.541 0c0,-98.076 -72.369,-185.101 -185.101,-185.101l0.02 -92.52 92.52 -0.021c0,93.302 89.117,185.103 185.101,185.102l0.001 92.54z"/>
    <path class="fil2" d="M1466.43 2194.036l-92.54 -0.001c0,-98.075 -72.369,-185.101 -185.101,-185.101l0.02 -92.52 92.519 -0.02c0.001,93.301 89.117,185.102 185.102,185.102l0 92.54z"/>
    <path class="fil2" d="M2021.673 1361.171l-92.54 0c0,-98.075 -72.369,-185.102 -185.101,-185.102l0.02 -92.519 92.52 -0.02c0,93.3 89.116,185.101 185.101,185.101l0 92.54z"/>
    <path class="fil2" d="M1744.052 1916.414l92.54 0c0,-98.076 72.37,-185.101 185.102,-185.101l-0.02 -92.52 -92.52 -0.021c-0.001,93.302 -89.117,185.103 -185.102,185.102l0 92.54z"/>
    <path class="fil2" d="M1466.43 2194.036l92.541 -0.001c0,-98.075 72.369,-185.101 185.101,-185.101l-0.02 -92.52 -92.52 -0.02c0,93.301 -89.116,185.102 -185.101,185.102l-0.001 92.54z"/>
    <circle class="fil2" transform="matrix(1.02517 0.591882 -0.591882 1.02517 789.439 1197.91)" r="47.499"/>
    <circle class="fil2" transform="matrix(1.02517 0.591882 -0.591882 1.02517 1039.09 948.254)" r="47.499"/>
    <circle class="fil2" transform="matrix(1.02517 0.591882 -0.591882 1.02517 1288.75 698.601)" r="47.499"/>
    <circle class="fil2" transform="matrix(-1.02517 0.591882 0.591882 1.02517 2143.42 1197.91)" r="47.499"/>
    <circle class="fil2" transform="matrix(-1.02517 0.591882 0.591882 1.02517 1893.77 948.254)" r="47.499"/>
    <circle class="fil2" transform="matrix(-1.02517 0.591882 0.591882 1.02517 1644.11 698.601)" r="47.499"/>
    <circle class="fil2" transform="matrix(1.02517 -0.591882 -0.591882 -1.02517 789.439 1802.92)" r="47.499"/>
    <circle class="fil2" transform="matrix(1.02517 -0.591882 -0.591882 -1.02517 1039.09 2052.57)" r="47.499"/>
    <circle class="fil2" transform="matrix(1.02517 -0.591882 -0.591882 -1.02517 1288.75 2302.23)" r="47.499"/>
    <circle class="fil2" transform="matrix(-1.02517 -0.591882 0.591882 -1.02517 2143.42 1802.92)" r="47.499"/>
    <circle class="fil2" transform="matrix(-1.02517 -0.591882 0.591882 -1.02517 1893.77 2052.57)" r="47.499"/>
    <circle class="fil2" transform="matrix(-1.02517 -0.591882 0.591882 -1.02517 1644.11 2302.23)" r="47.499"/>
    <g>
     <circle class="fil2" transform="matrix(-1.02517 -0.591882 0.591882 -1.02517 2173.77 1499.98)" r="47.499"/>
     <circle class="fil2" transform="matrix(1.02517 -0.591882 -0.591882 -1.02517 759.085 1499.98)" r="47.499"/>
    </g>
    <circle class="fil2" transform="matrix(0.591474 -0.341487 -0.341487 -0.591474 1059.34 2187.51)" r="47.499"/>
    <circle class="fil2" transform="matrix(0.591474 -0.341487 -0.341487 -0.591474 904.713 2031.76)" r="47.499"/>
    <circle class="fil2" transform="matrix(-0.591474 -0.341487 0.341487 -0.591474 1873.52 2187.51)" r="47.499"/>
    <circle class="fil2" transform="matrix(-0.591474 -0.341487 0.341487 -0.591474 2028.15 2031.76)" r="47.499"/>
    <circle class="fil2" transform="matrix(0.591474 0.341487 -0.341487 0.591474 1059.34 812.455)" r="47.499"/>
    <circle class="fil2" transform="matrix(0.591474 0.341487 -0.341487 0.591474 904.713 968.207)" r="47.499"/>
    <circle class="fil2" transform="matrix(-0.591474 0.341487 0.341487 0.591474 1873.52 812.455)" r="47.499"/>
    <circle class="fil2" transform="matrix(-0.591474 0.341487 0.341487 0.591474 2028.15 968.207)" r="47.499"/>
    <g>
     <circle class="fil2" transform="matrix(0.591474 -0.341487 -0.341487 -0.591474 717.474 1657.42)" r="47.499"/>
     <circle class="fil2" transform="matrix(0.591474 -0.341487 -0.341487 -0.591474 717.474 1342.54)" r="47.499"/>
     <circle class="fil2" transform="matrix(0.591474 -0.341487 -0.341487 -0.591474 2215.39 1657.42)" r="47.499"/>
     <circle class="fil2" transform="matrix(0.591474 -0.341487 -0.341487 -0.591474 2215.39 1342.54)" r="47.499"/>
    </g>
    <g>
     <circle class="fil2" transform="matrix(0.591474 -0.341487 -0.341487 -0.591474 1466.43 2357.64)" r="47.499"/>
     <circle class="fil2" transform="matrix(0.591474 -0.341487 -0.341487 -0.591474 1466.43 642.327)" r="47.499"/>
    </g>
    <circle class="fil2" transform="matrix(0.591474 0.341487 -0.341487 0.591474 794.983 1037.47)" r="47.499"/>
    <circle class="fil2" transform="matrix(0.439235 0.253593 -0.253593 0.439235 932.824 841.314)" r="47.499"/>
    <circle class="fil2" transform="matrix(-0.591474 0.341487 0.341487 0.591474 2137.88 1037.47)" r="47.499"/>
    <circle class="fil2" transform="matrix(-0.439235 0.253593 0.253593 0.439235 2000.04 841.314)" r="47.499"/>
    <circle class="fil2" transform="matrix(0.591474 -0.341487 -0.341487 -0.591474 794.983 1962.5)" r="47.499"/>
    <circle class="fil2" transform="matrix(0.439235 -0.253593 -0.253593 -0.439235 932.824 2158.65)" r="47.499"/>
    <circle class="fil2" transform="matrix(-0.591474 -0.341487 0.341487 -0.591474 2137.88 1962.5)" r="47.499"/>
    <circle class="fil2" transform="matrix(-0.439235 -0.253593 0.253593 -0.439235 2000.04 2158.65)" r="47.499"/>
    <circle class="fil2" transform="matrix(0.439235 0.253593 -0.253593 0.439235 633.977 1426.04)" r="47.499"/>
    <circle class="fil2" transform="matrix(0.439235 0.253593 -0.253593 0.439235 633.977 1573.92)" r="47.499"/>
    <g>
     <circle class="fil2" transform="matrix(0.439235 0.253593 -0.253593 0.439235 2298.88 1426.04)" r="47.499"/>
     <circle class="fil2" transform="matrix(0.439235 0.253593 -0.253593 0.439235 2298.88 1573.92)" r="47.499"/>
    </g>
    <g>
     <circle class="fil2" transform="matrix(0.439235 0.253593 -0.253593 0.439235 665.745 1245.83)" r="47.499"/>
     <circle class="fil2" transform="matrix(0.439235 0.253593 -0.253593 0.439235 665.745 1754.13)" r="47.499"/>
     <circle class="fil2" transform="matrix(0.439235 0.253593 -0.253593 0.439235 2267.11 1245.83)" r="47.499"/>
     <circle class="fil2" transform="matrix(0.439235 0.253593 -0.253593 0.439235 2267.11 1754.13)" r="47.499"/>
    </g>
    <circle class="fil2" transform="matrix(0.439235 0.253593 -0.253593 0.439235 1136.78 717.095)" r="47.499"/>
    <circle class="fil2" transform="matrix(0.439235 0.253593 -0.253593 0.439235 1796.08 717.095)" r="47.499"/>
    <circle class="fil2" transform="matrix(0.439235 0.253593 -0.253593 0.439235 1136.78 2282.87)" r="47.499"/>
    <circle class="fil2" transform="matrix(0.439235 0.253593 -0.253593 0.439235 1796.08 2282.87)" r="47.499"/>
   </g>
  </g>
 </g>
</svg>
