<svg width="266" height="42" viewBox="0 0 266 42" fill="none" xmlns="http://www.w3.org/2000/svg">
<path d="M62.9815 29.9743C61.5094 29.9743 60.1785 29.6416 58.9887 28.9761C57.8191 28.2905 56.8814 27.373 56.1756 26.2235C55.49 25.0539 55.1472 23.7533 55.1472 22.3215C55.1472 20.8898 55.49 19.6093 56.1756 18.48C56.8613 17.3306 57.7989 16.4231 58.9887 15.7577C60.1785 15.0721 61.4993 14.7292 62.9512 14.7292C64.4435 14.7292 65.7744 15.0721 66.944 15.7577C68.1337 16.4231 69.0714 17.3306 69.757 18.48C70.4427 19.6093 70.7855 20.8898 70.7855 22.3215C70.7855 23.7533 70.4427 25.0539 69.757 26.2235C69.0714 27.373 68.1337 28.2905 66.944 28.9761C65.7744 29.6416 64.4535 29.9743 62.9815 29.9743ZM62.9512 26.284C63.6973 26.284 64.3527 26.1227 64.9173 25.8001C65.5021 25.4573 65.9458 24.9934 66.2483 24.4086C66.5709 23.8037 66.7322 23.1181 66.7322 22.3518C66.7322 21.5855 66.5709 20.9099 66.2483 20.3252C65.9256 19.7404 65.482 19.2866 64.9173 18.964C64.3527 18.6212 63.6973 18.4498 62.9512 18.4498C62.2253 18.4498 61.58 18.6212 61.0153 18.964C60.4507 19.2866 60.0071 19.7404 59.6844 20.3252C59.3618 20.9099 59.2004 21.5855 59.2004 22.3518C59.2004 23.1181 59.3618 23.8037 59.6844 24.4086C60.0071 24.9934 60.4507 25.4573 61.0153 25.8001C61.58 26.1227 62.2253 26.284 62.9512 26.284Z" fill="#3B82F6"/>
<path d="M82.0479 29.9743C80.9993 29.9743 80.0516 29.7626 79.2046 29.3391C78.3577 28.8955 77.6821 28.3006 77.178 27.5545C76.6739 26.8083 76.4016 25.9513 76.3613 24.9834V19.8109C76.4016 18.843 76.6739 17.986 77.178 17.2398C77.7023 16.4736 78.3778 15.8686 79.2046 15.425C80.0516 14.9813 80.9993 14.7595 82.0479 14.7595C83.399 14.7595 84.6089 15.0922 85.6777 15.7577C86.7465 16.4231 87.5833 17.3306 88.1883 18.48C88.8134 19.6294 89.126 20.9301 89.126 22.382C89.126 23.8138 88.8134 25.1044 88.1883 26.2538C87.5833 27.4032 86.7465 28.3107 85.6777 28.9761C84.6089 29.6416 83.399 29.9743 82.0479 29.9743ZM81.3522 26.3143C82.0782 26.3143 82.7235 26.153 83.2881 25.8303C83.8527 25.4875 84.2863 25.0237 84.5888 24.4389C84.9114 23.8339 85.0728 23.1382 85.0728 22.3518C85.0728 21.5855 84.9114 20.9099 84.5888 20.3252C84.2863 19.7202 83.8527 19.2564 83.2881 18.9337C82.7235 18.5909 82.0782 18.4195 81.3522 18.4195C80.6464 18.4195 80.0112 18.5909 79.4466 18.9337C78.882 19.2564 78.4383 19.7202 78.1157 20.3252C77.8132 20.9099 77.662 21.5855 77.662 22.3518C77.662 23.1382 77.8132 23.8339 78.1157 24.4389C78.4383 25.0237 78.8719 25.4875 79.4164 25.8303C79.981 26.153 80.6263 26.3143 81.3522 26.3143ZM73.9414 35.7819V15.062H77.9039V18.9035L77.2385 22.4425L77.8737 25.9816V35.7819H73.9414Z" fill="#3B82F6"/>
<path d="M99.3163 29.9743C97.7837 29.9743 96.4226 29.6517 95.2328 29.0064C94.0431 28.3409 93.0953 27.4335 92.3895 26.284C91.7039 25.1346 91.3611 23.8239 91.3611 22.3518C91.3611 20.8999 91.6938 19.6093 92.3592 18.48C93.0449 17.3306 93.9725 16.4231 95.1421 15.7577C96.3117 15.0721 97.6123 14.7292 99.0441 14.7292C100.456 14.7292 101.696 15.0519 102.765 15.6972C103.854 16.3223 104.7 17.1894 105.305 18.2985C105.931 19.3875 106.243 20.6276 106.243 22.019C106.243 22.2812 106.223 22.5534 106.183 22.8357C106.162 23.0979 106.112 23.4004 106.031 23.7432L93.7507 23.7734V20.8091L104.186 20.7789L102.583 22.019C102.543 21.1519 102.381 20.426 102.099 19.8412C101.837 19.2564 101.444 18.8127 100.919 18.5103C100.415 18.1876 99.7902 18.0263 99.0441 18.0263C98.2576 18.0263 97.572 18.2078 96.9872 18.5708C96.4024 18.9136 95.9487 19.4076 95.626 20.0529C95.3236 20.678 95.1723 21.4242 95.1723 22.2913C95.1723 23.1786 95.3336 23.9549 95.6563 24.6204C95.9991 25.2657 96.4831 25.7698 97.1082 26.1328C97.7333 26.4756 98.4593 26.647 99.2861 26.647C100.032 26.647 100.708 26.526 101.313 26.284C101.918 26.0219 102.442 25.6387 102.886 25.1346L105.215 27.4637C104.509 28.2905 103.642 28.9156 102.613 29.3391C101.605 29.7626 100.506 29.9743 99.3163 29.9743Z" fill="#3B82F6"/>
<path d="M108.905 29.6718V21.3838C108.905 20.0731 109.188 18.9237 109.752 17.9355C110.337 16.9273 111.134 16.1408 112.142 15.5762C113.15 15.0116 114.33 14.7292 115.681 14.7292C117.032 14.7292 118.212 15.0116 119.22 15.5762C120.248 16.1207 121.035 16.897 121.579 17.9053C122.144 18.8934 122.426 20.0529 122.426 21.3838V29.6718H118.464V21.5653C118.464 20.5974 118.222 19.8311 117.738 19.2665C117.274 18.6817 116.588 18.3893 115.681 18.3893C114.774 18.3893 114.078 18.6817 113.594 19.2665C113.13 19.8311 112.898 20.5974 112.898 21.5653V29.6718H108.905Z" fill="#3B82F6"/>
<path d="M137.684 30.0046C136.857 30.0046 136.041 29.8936 135.234 29.6718C134.448 29.45 133.722 29.1475 133.056 28.7644C132.391 28.3611 131.816 27.8771 131.332 27.3125L133.691 24.9229C134.196 25.4875 134.78 25.911 135.446 26.1933C136.111 26.4756 136.847 26.6168 137.654 26.6168C138.299 26.6168 138.783 26.526 139.106 26.3445C139.449 26.163 139.62 25.8908 139.62 25.5278C139.62 25.1245 139.439 24.812 139.076 24.5901C138.733 24.3683 138.279 24.1868 137.714 24.0457C137.15 23.8843 136.555 23.7129 135.93 23.5315C135.325 23.3298 134.74 23.0777 134.175 22.7753C133.611 22.4526 133.147 22.019 132.784 21.4746C132.441 20.9099 132.27 20.184 132.27 19.2967C132.27 18.3691 132.492 17.5625 132.935 16.8769C133.399 16.1912 134.054 15.6569 134.901 15.2737C135.748 14.8906 136.746 14.699 137.896 14.699C139.106 14.699 140.195 14.9107 141.163 15.3342C142.151 15.7577 142.968 16.3929 143.613 17.2398L141.223 19.6294C140.78 19.085 140.275 18.6918 139.711 18.4498C139.166 18.2078 138.571 18.0868 137.926 18.0868C137.341 18.0868 136.888 18.1775 136.565 18.359C136.263 18.5405 136.111 18.7926 136.111 19.1152C136.111 19.4782 136.283 19.7605 136.625 19.9622C136.988 20.1638 137.452 20.3453 138.017 20.5066C138.582 20.6478 139.166 20.8192 139.771 21.0209C140.396 21.2023 140.981 21.4645 141.526 21.8073C142.09 22.1501 142.544 22.6038 142.887 23.1685C143.25 23.7331 143.431 24.4591 143.431 25.3463C143.431 26.7781 142.917 27.9174 141.889 28.7644C140.86 29.5912 139.459 30.0046 137.684 30.0046Z" fill="#3B82F6"/>
<path d="M152.818 29.9743C151.487 29.9743 150.288 29.6416 149.219 28.9761C148.15 28.3107 147.313 27.4032 146.708 26.2538C146.103 25.1044 145.801 23.8138 145.801 22.382C145.801 20.9301 146.103 19.6294 146.708 18.48C147.313 17.3306 148.15 16.4231 149.219 15.7577C150.288 15.0922 151.487 14.7595 152.818 14.7595C153.867 14.7595 154.805 14.9712 155.631 15.3947C156.458 15.8182 157.114 16.4131 157.598 17.1793C158.102 17.9255 158.374 18.7724 158.414 19.7202V24.9834C158.374 25.9513 158.102 26.8083 157.598 27.5545C157.114 28.3006 156.458 28.8955 155.631 29.3391C154.805 29.7626 153.867 29.9743 152.818 29.9743ZM153.544 26.3143C154.653 26.3143 155.551 25.9513 156.236 25.2253C156.922 24.4792 157.265 23.5214 157.265 22.3518C157.265 21.5855 157.104 20.9099 156.781 20.3252C156.478 19.7202 156.045 19.2564 155.48 18.9337C154.936 18.5909 154.29 18.4195 153.544 18.4195C152.818 18.4195 152.173 18.5909 151.608 18.9337C151.064 19.2564 150.63 19.7202 150.308 20.3252C150.005 20.9099 149.854 21.5855 149.854 22.3518C149.854 23.1382 150.005 23.8339 150.308 24.4389C150.63 25.0237 151.064 25.4875 151.608 25.8303C152.173 26.153 152.818 26.3143 153.544 26.3143ZM157.053 29.6718V25.7396L157.688 22.1703L157.053 18.6615V15.062H160.985V29.6718H157.053Z" fill="#3B82F6"/>
<path d="M164.703 29.6718V21.3838C164.703 20.0731 164.985 18.9237 165.55 17.9355C166.134 16.9273 166.931 16.1408 167.939 15.5762C168.947 15.0116 170.127 14.7292 171.478 14.7292C172.829 14.7292 174.009 15.0116 175.017 15.5762C176.046 16.1207 176.832 16.897 177.377 17.9053C177.941 18.8934 178.224 20.0529 178.224 21.3838V29.6718H174.261V21.5653C174.261 20.5974 174.019 19.8311 173.535 19.2665C173.071 18.6817 172.386 18.3893 171.478 18.3893C170.571 18.3893 169.875 18.6817 169.391 19.2665C168.927 19.8311 168.695 20.5974 168.695 21.5653V29.6718H164.703Z" fill="#3B82F6"/>
<path d="M188.844 29.9743C187.352 29.9743 186.011 29.6416 184.821 28.9761C183.631 28.3107 182.693 27.4032 182.008 26.2538C181.322 25.1044 180.979 23.8138 180.979 22.382C180.979 20.9301 181.322 19.6294 182.008 18.48C182.693 17.3306 183.631 16.4231 184.821 15.7577C186.031 15.0721 187.372 14.7292 188.844 14.7292C189.993 14.7292 191.052 14.941 192.02 15.3645C192.988 15.7879 193.825 16.3929 194.531 17.1793L191.99 19.7504C191.607 19.327 191.143 19.0043 190.598 18.7825C190.074 18.5607 189.489 18.4498 188.844 18.4498C188.118 18.4498 187.463 18.6212 186.878 18.964C186.313 19.2866 185.859 19.7404 185.517 20.3252C185.194 20.8898 185.033 21.5653 185.033 22.3518C185.033 23.1181 185.194 23.8037 185.517 24.4086C185.859 24.9934 186.313 25.4573 186.878 25.8001C187.463 26.1227 188.118 26.284 188.844 26.284C189.509 26.284 190.104 26.1731 190.629 25.9513C191.173 25.7093 191.637 25.3665 192.02 24.9229L194.591 27.494C193.845 28.3006 192.988 28.9156 192.02 29.3391C191.052 29.7626 189.993 29.9743 188.844 29.9743Z" fill="#3B82F6"/>
<path d="M204.766 29.9743C203.717 29.9743 202.779 29.7626 201.953 29.3391C201.146 28.9156 200.501 28.3006 200.017 27.494C199.553 26.6873 199.321 25.7093 199.321 24.5599V8.9821H203.314V24.5599C203.314 25.1447 203.485 25.5883 203.828 25.8908C204.171 26.1933 204.574 26.3445 205.038 26.3445C205.421 26.3445 205.754 26.284 206.036 26.163C206.319 26.0219 206.581 25.8303 206.823 25.5883L209.242 28.0082C208.678 28.6535 208.053 29.1475 207.367 29.4903C206.702 29.813 205.835 29.9743 204.766 29.9743ZM195.964 18.601V15.062H208.335V18.601H195.964Z" fill="#3B82F6"/>
<path d="M212.017 29.6718V15.062H216.01V29.6718H212.017ZM214.013 12.7026C213.368 12.7026 212.834 12.4909 212.41 12.0674C211.987 11.6238 211.775 11.0793 211.775 10.434C211.775 9.80889 211.987 9.2745 212.41 8.83086C212.834 8.38723 213.368 8.16541 214.013 8.16541C214.679 8.16541 215.213 8.38723 215.617 8.83086C216.04 9.2745 216.252 9.80889 216.252 10.434C216.252 11.0793 216.04 11.6238 215.617 12.0674C215.213 12.4909 214.679 12.7026 214.013 12.7026Z" fill="#3B82F6"/>
<path d="M226.991 29.9743C225.519 29.9743 224.188 29.6416 222.999 28.9761C221.829 28.2905 220.891 27.373 220.185 26.2235C219.5 25.0539 219.157 23.7533 219.157 22.3215C219.157 20.8898 219.5 19.6093 220.185 18.48C220.871 17.3306 221.809 16.4231 222.999 15.7577C224.188 15.0721 225.509 14.7292 226.961 14.7292C228.453 14.7292 229.784 15.0721 230.954 15.7577C232.144 16.4231 233.081 17.3306 233.767 18.48C234.452 19.6093 234.795 20.8898 234.795 22.3215C234.795 23.7533 234.452 25.0539 233.767 26.2235C233.081 27.373 232.144 28.2905 230.954 28.9761C229.784 29.6416 228.463 29.9743 226.991 29.9743ZM226.961 26.284C227.707 26.284 228.363 26.1227 228.927 25.8001C229.512 25.4573 229.956 24.9934 230.258 24.4086C230.581 23.8037 230.742 23.1181 230.742 22.3518C230.742 21.5855 230.581 20.9099 230.258 20.3252C229.935 19.7404 229.492 19.2866 228.927 18.964C228.363 18.6212 227.707 18.4498 226.961 18.4498C226.235 18.4498 225.59 18.6212 225.025 18.964C224.461 19.2866 224.017 19.7404 223.694 20.3252C223.372 20.9099 223.21 21.5855 223.21 22.3518C223.21 23.1181 223.372 23.8037 223.694 24.4086C224.017 24.9934 224.461 25.4573 225.025 25.8001C225.59 26.1227 226.235 26.284 226.961 26.284Z" fill="#3B82F6"/>
<path d="M237.558 29.6718V21.3838C237.558 20.0731 237.84 18.9237 238.405 17.9355C238.99 16.9273 239.786 16.1408 240.795 15.5762C241.803 15.0116 242.983 14.7292 244.334 14.7292C245.685 14.7292 246.864 15.0116 247.873 15.5762C248.901 16.1207 249.688 16.897 250.232 17.9053C250.797 18.8934 251.079 20.0529 251.079 21.3838V29.6718H247.116V21.5653C247.116 20.5974 246.874 19.8311 246.39 19.2665C245.927 18.6817 245.241 18.3893 244.334 18.3893C243.426 18.3893 242.73 18.6817 242.246 19.2665C241.783 19.8311 241.551 20.5974 241.551 21.5653V29.6718H237.558Z" fill="#3B82F6"/>
<path d="M259.824 30.0046C258.997 30.0046 258.181 29.8936 257.374 29.6718C256.587 29.45 255.861 29.1475 255.196 28.7644C254.531 28.3611 253.956 27.8771 253.472 27.3125L255.831 24.9229C256.335 25.4875 256.92 25.911 257.586 26.1933C258.251 26.4756 258.987 26.6168 259.794 26.6168C260.439 26.6168 260.923 26.526 261.246 26.3445C261.588 26.163 261.76 25.8908 261.76 25.5278C261.76 25.1245 261.578 24.812 261.215 24.5901C260.873 24.3683 260.419 24.1868 259.854 24.0457C259.29 23.8843 258.695 23.7129 258.07 23.5315C257.465 23.3298 256.88 23.0777 256.315 22.7753C255.751 22.4526 255.287 22.019 254.924 21.4746C254.581 20.9099 254.41 20.184 254.41 19.2967C254.41 18.3691 254.631 17.5625 255.075 16.8769C255.539 16.1912 256.194 15.6569 257.041 15.2737C257.888 14.8906 258.886 14.699 260.036 14.699C261.246 14.699 262.335 14.9107 263.303 15.3342C264.291 15.7577 265.107 16.3929 265.753 17.2398L263.363 19.6294C262.919 19.085 262.415 18.6918 261.851 18.4498C261.306 18.2078 260.711 18.0868 260.066 18.0868C259.481 18.0868 259.027 18.1775 258.705 18.359C258.402 18.5405 258.251 18.7926 258.251 19.1152C258.251 19.4782 258.422 19.7605 258.765 19.9622C259.128 20.1638 259.592 20.3453 260.157 20.5066C260.721 20.6478 261.306 20.8192 261.911 21.0209C262.536 21.2023 263.121 21.4645 263.665 21.8073C264.23 22.1501 264.684 22.6038 265.027 23.1685C265.39 23.7331 265.571 24.4591 265.571 25.3463C265.571 26.7781 265.057 27.9174 264.028 28.7644C263 29.5912 261.599 30.0046 259.824 30.0046Z" fill="#3B82F6"/>
<path d="M25.2083 28.5381C25.2083 25.7666 22.9513 23.5199 20.1671 23.5199C17.3829 23.5199 15.1259 25.7666 15.1259 28.5381C15.1259 31.3096 17.3829 33.5563 20.1671 33.5563C22.9513 33.5563 25.2083 31.3096 25.2083 28.5381Z" fill="#3B82F6"/>
<path fill-rule="evenodd" clip-rule="evenodd" d="M20.1662 28.5369L15.1259 28.5381C15.1259 23.5198 10.0825 18.4992 5.04128 18.4992L5.04236 13.482L10.0825 13.4809C10.0825 18.5404 15.1258 23.5199 20.1671 23.5199L20.1662 28.5369Z" fill="#3B82F6"/>
<path fill-rule="evenodd" clip-rule="evenodd" d="M20.1671 13.4831L25.2093 13.4821C25.2093 18.5004 30.2516 23.5198 35.2929 23.5198L35.2909 28.538L30.2516 28.538C30.2516 23.4785 25.2093 18.5004 20.168 18.5004L20.1671 13.4831Z" fill="#3B82F6"/>
<path d="M20.168 18.5004C22.9522 18.5004 25.2093 16.2536 25.2093 13.4821C25.2093 10.7105 22.9513 8.46469 20.1671 8.46469C17.3829 8.46469 15.1259 10.7114 15.1259 13.483C15.1259 16.2545 17.3838 18.5004 20.168 18.5004Z" fill="#3B82F6"/>
<path d="M20.1671 33.5563C22.9513 33.5563 25.2083 31.3096 25.2083 28.5381C25.2083 25.7666 22.9513 23.5199 20.1671 23.5199C17.3829 23.5199 15.1259 25.7666 15.1259 28.5381C15.1259 31.3096 17.3829 33.5563 20.1671 33.5563Z" fill="#3B82F6"/>
<path d="M11.2445 32.7341C10.1891 31.6787 10.0846 30.0305 10.0846 28.538C10.0846 25.7664 7.82758 23.5197 5.04336 23.5197C2.25913 23.5197 0.00207697 25.7664 0.00207697 28.538C0.00207697 31.3096 2.25913 33.5563 5.04336 33.5563C6.53066 33.5563 8.16918 33.6691 9.22086 34.7208L13.8173 39.3173C17.3242 42.8241 23.01 42.8241 26.5168 39.3173L31.1123 34.7218C32.1639 33.6702 33.8035 33.5563 35.2908 33.5563C38.075 33.5563 40.332 31.3096 40.332 28.538C40.332 25.7664 38.0751 23.5197 35.2909 23.5197C32.5067 23.5197 30.2496 25.7664 30.2496 28.538C30.2496 30.0306 30.1438 31.6799 29.0884 32.7353L24.5116 37.3121C22.1122 39.7115 18.2219 39.7115 15.8225 37.3121L11.2445 32.7341Z" fill="#3B82F6"/>
<path d="M30.2495 13.4832C30.2495 11.9625 30.1521 10.2758 29.0767 9.20044L24.5116 4.63534C22.1122 2.2359 18.2219 2.2359 15.8225 4.63534L11.2549 9.2029C10.1802 10.2776 10.0825 11.961 10.0825 13.4809C10.0825 16.2524 7.82548 18.4992 5.04128 18.4992C2.25707 18.4992 0 16.2534 0 13.4819C0 10.7103 2.25705 8.46354 5.04125 8.46354C6.50076 8.46354 8.10516 8.34231 9.13718 7.31028L13.8173 2.63015C17.3242 -0.876722 23.01 -0.876714 26.5168 2.63016L31.1973 7.31066C32.2288 8.34209 33.8321 8.46488 35.2908 8.46488C38.075 8.46488 40.332 10.7117 40.332 13.4832C40.332 16.2547 38.075 18.5015 35.2908 18.5015C32.5066 18.5015 30.2495 16.2547 30.2495 13.4832Z" fill="#3B82F6"/>
</svg>
