<svg width="42" height="42" viewBox="0 0 42 42" fill="none" xmlns="http://www.w3.org/2000/svg">
    <path d="M26.0423 28.5381C26.0423 25.7666 23.7852 23.5199 21.0011 23.5199C18.2169 23.5199 15.9599 25.7666 15.9599 28.5381C15.9599 31.3096 18.2169 33.5563 21.0011 33.5563C23.7852 33.5563 26.0423 31.3096 26.0423 28.5381Z" fill="#3B82F6"/>
    <path fill-rule="evenodd" clip-rule="evenodd" d="M21.0001 28.5369L15.9599 28.5381C15.9599 23.5198 10.9165 18.4992 5.87527 18.4992L5.87635 13.482L10.9165 13.4809C10.9165 18.5404 15.9598 23.5199 21.0011 23.5199L21.0001 28.5369Z" fill="#3B82F6"/>
    <path fill-rule="evenodd" clip-rule="evenodd" d="M21.0011 13.4831L26.0433 13.4821C26.0433 18.5004 31.0856 23.5198 36.1269 23.5198L36.1249 28.538L31.0856 28.538C31.0856 23.4785 26.0433 18.5004 21.002 18.5004L21.0011 13.4831Z" fill="#3B82F6"/>
    <path d="M21.002 18.5004C23.7862 18.5004 26.0433 16.2536 26.0433 13.4821C26.0433 10.7105 23.7853 8.46469 21.0011 8.46469C18.2169 8.46469 15.9599 10.7114 15.9599 13.483C15.9599 16.2545 18.2178 18.5004 21.002 18.5004Z" fill="#3B82F6"/>
    <path d="M21.0011 33.5563C23.7852 33.5563 26.0423 31.3096 26.0423 28.5381C26.0423 25.7666 23.7852 23.5199 21.0011 23.5199C18.2169 23.5199 15.9599 25.7666 15.9599 28.5381C15.9599 31.3096 18.2169 33.5563 21.0011 33.5563Z" fill="#3B82F6"/>
    <path d="M12.0785 32.7341C11.0231 31.6787 10.9186 30.0305 10.9186 28.538C10.9186 25.7664 8.66157 23.5197 5.87735 23.5197C3.09312 23.5197 0.836069 25.7664 0.836069 28.538C0.836069 31.3096 3.09312 33.5563 5.87735 33.5563C7.36465 33.5563 9.00317 33.6691 10.0549 34.7208L14.6513 39.3173C18.1582 42.8241 23.844 42.8241 27.3508 39.3173L31.9463 34.7218C32.9979 33.6702 34.6375 33.5563 36.1248 33.5563C38.909 33.5563 41.166 31.3096 41.166 28.538C41.166 25.7664 38.9091 23.5197 36.1249 23.5197C33.3407 23.5197 31.0836 25.7664 31.0836 28.538C31.0836 30.0306 30.9778 31.6799 29.9224 32.7353L25.3456 37.3121C22.9462 39.7115 19.0559 39.7115 16.6565 37.3121L12.0785 32.7341Z" fill="#3B82F6"/>
    <path d="M31.0835 13.4832C31.0835 11.9625 30.986 10.2758 29.9107 9.20044L25.3456 4.63534C22.9462 2.2359 19.0559 2.2359 16.6565 4.63534L12.0889 9.2029C11.0142 10.2776 10.9165 11.961 10.9165 13.4809C10.9165 16.2524 8.65947 18.4992 5.87527 18.4992C3.09106 18.4992 0.833992 16.2534 0.833992 13.4819C0.833992 10.7103 3.09104 8.46354 5.87525 8.46354C7.33475 8.46354 8.93915 8.34231 9.97118 7.31028L14.6513 2.63015C18.1582 -0.876722 23.844 -0.876714 27.3508 2.63016L32.0313 7.31066C33.0628 8.34209 34.6661 8.46488 36.1248 8.46488C38.909 8.46488 41.166 10.7117 41.166 13.4832C41.166 16.2547 38.909 18.5015 36.1248 18.5015C33.3405 18.5015 31.0835 16.2547 31.0835 13.4832Z" fill="#3B82F6"/>
    </svg>
    