<svg width="161" height="73" viewBox="0 0 161 73" fill="none" xmlns="http://www.w3.org/2000/svg">
    <path d="M83.2778 28.7955C83.2778 26.024 81.0208 23.7772 78.2366 23.7772C75.4524 23.7772 73.1954 26.024 73.1954 28.7955C73.1954 31.567 75.4524 33.8137 78.2366 33.8137C81.0208 33.8137 83.2778 31.567 83.2778 28.7955Z" fill="white"/>
    <path fill-rule="evenodd" clip-rule="evenodd" d="M78.2357 28.7943L73.1954 28.7955C73.1954 23.7772 68.152 18.7565 63.1108 18.7565L63.1119 13.7393L68.152 13.7383C68.152 18.7978 73.1953 23.7772 78.2366 23.7772L78.2357 28.7943Z" fill="white"/>
    <path fill-rule="evenodd" clip-rule="evenodd" d="M78.2366 13.7405L83.2788 13.7395C83.2788 18.7577 88.3211 23.7771 93.3624 23.7771L93.3604 28.7954L88.3211 28.7954C88.3211 23.7359 83.2788 18.7577 78.2375 18.7577L78.2366 13.7405Z" fill="white"/>
    <path d="M78.2375 18.7577C81.0217 18.7577 83.2788 16.511 83.2788 13.7395C83.2788 10.9679 81.0208 8.72208 78.2366 8.72208C75.4524 8.72208 73.1954 10.9688 73.1954 13.7403C73.1954 16.5119 75.4533 18.7577 78.2375 18.7577Z" fill="white"/>
    <path d="M78.2366 33.8137C81.0208 33.8137 83.2778 31.567 83.2778 28.7955C83.2778 26.024 81.0208 23.7772 78.2366 23.7772C75.4524 23.7772 73.1954 26.024 73.1954 28.7955C73.1954 31.567 75.4524 33.8137 78.2366 33.8137Z" fill="white"/>
    <path d="M69.314 32.9915C68.2587 31.9361 68.1542 30.2879 68.1542 28.7954C68.1542 26.0238 65.8971 23.777 63.1129 23.777C60.3287 23.777 58.0716 26.0238 58.0716 28.7954C58.0716 31.5669 60.3287 33.8137 63.1129 33.8137C64.6002 33.8137 66.2387 33.9265 67.2904 34.9782L71.8868 39.5746C75.3937 43.0815 81.0795 43.0815 84.5863 39.5746L89.1818 34.9792C90.2334 33.9276 91.873 33.8137 93.3603 33.8137C96.1445 33.8137 98.4015 31.5669 98.4015 28.7954C98.4015 26.0238 96.1446 23.7771 93.3604 23.7771C90.5762 23.7771 88.3191 26.0238 88.3191 28.7954C88.3191 30.288 88.2133 31.9373 87.1579 32.9927L82.5812 37.5695C80.1817 39.9689 76.2915 39.9689 73.892 37.5695L69.314 32.9915Z" fill="white"/>
    <path d="M88.319 13.7406C88.319 12.2198 88.2216 10.5331 87.1463 9.45782L82.5812 4.89273C80.1817 2.49329 76.2915 2.49328 73.892 4.89272L69.3245 9.46028C68.2497 10.535 68.152 12.2184 68.152 13.7383C68.152 16.5098 65.895 18.7565 63.1108 18.7565C60.3266 18.7565 58.0695 16.5108 58.0695 13.7393C58.0695 10.9677 60.3266 8.72092 63.1108 8.72092C64.5703 8.72092 66.1747 8.59969 67.2067 7.56767L71.8868 2.88754C75.3937 -0.619337 81.0795 -0.619329 84.5863 2.88754L89.2669 7.56805C90.2983 8.59948 91.9016 8.72227 93.3603 8.72227C96.1445 8.72227 98.4015 10.969 98.4015 13.7406C98.4015 16.5121 96.1445 18.7589 93.3603 18.7589C90.5761 18.7589 88.319 16.5121 88.319 13.7406Z" fill="white"/>
    <path d="M6.57137 68.5698C5.45377 68.5698 4.44334 68.3172 3.54007 67.812C2.65212 67.2915 1.94022 66.5949 1.40439 65.7222C0.883859 64.8343 0.623596 63.8468 0.623596 62.7598C0.623596 61.6729 0.883859 60.7007 1.40439 59.8434C1.92491 58.9707 2.63681 58.2818 3.54007 57.7766C4.44334 57.256 5.44612 56.9958 6.54841 56.9958C7.68132 56.9958 8.69175 57.256 9.57971 57.7766C10.483 58.2818 11.1949 58.9707 11.7154 59.8434C12.2359 60.7007 12.4962 61.6729 12.4962 62.7598C12.4962 63.8468 12.2359 64.8343 11.7154 65.7222C11.1949 66.5949 10.483 67.2915 9.57971 67.812C8.69175 68.3172 7.68897 68.5698 6.57137 68.5698ZM6.54841 65.7682C7.11486 65.7682 7.61242 65.6457 8.04109 65.4007C8.48507 65.1405 8.82188 64.7884 9.05152 64.3444C9.29648 63.8851 9.41895 63.3646 9.41895 62.7828C9.41895 62.201 9.29648 61.6882 9.05152 61.2442C8.80657 60.8002 8.46976 60.4557 8.04109 60.2108C7.61242 59.9505 7.11486 59.8204 6.54841 59.8204C5.99726 59.8204 5.50735 59.9505 5.07869 60.2108C4.65002 60.4557 4.31321 60.8002 4.06825 61.2442C3.8233 61.6882 3.70082 62.201 3.70082 62.7828C3.70082 63.3646 3.8233 63.8851 4.06825 64.3444C4.31321 64.7884 4.65002 65.1405 5.07869 65.4007C5.50735 65.6457 5.99726 65.7682 6.54841 65.7682Z" fill="white"/>
    <path d="M21.0466 68.5698C20.2505 68.5698 19.531 68.4091 18.888 68.0876C18.245 67.7508 17.7321 67.2991 17.3494 66.7327C16.9666 66.1662 16.76 65.5156 16.7293 64.7807V60.8538C16.76 60.1189 16.9666 59.4683 17.3494 58.9018C17.7474 58.3201 18.2603 57.8608 18.888 57.524C19.531 57.1872 20.2505 57.0187 21.0466 57.0187C22.0724 57.0187 22.991 57.2714 23.8024 57.7766C24.6138 58.2818 25.2491 58.9707 25.7084 59.8434C26.183 60.716 26.4203 61.7035 26.4203 62.8058C26.4203 63.8928 26.183 64.8726 25.7084 65.7452C25.2491 66.6179 24.6138 67.3068 23.8024 67.812C22.991 68.3172 22.0724 68.5698 21.0466 68.5698ZM20.5185 65.7911C21.0696 65.7911 21.5595 65.6687 21.9882 65.4237C22.4169 65.1634 22.746 64.8113 22.9757 64.3673C23.2206 63.9081 23.3431 63.3799 23.3431 62.7828C23.3431 62.201 23.2206 61.6882 22.9757 61.2442C22.746 60.7849 22.4169 60.4328 21.9882 60.1878C21.5595 59.9276 21.0696 59.7974 20.5185 59.7974C19.9826 59.7974 19.5004 59.9276 19.0717 60.1878C18.643 60.4328 18.3062 60.7849 18.0613 61.2442C17.8316 61.6882 17.7168 62.201 17.7168 62.7828C17.7168 63.3799 17.8316 63.9081 18.0613 64.3673C18.3062 64.8113 18.6354 65.1634 19.0487 65.4237C19.4774 65.6687 19.9673 65.7911 20.5185 65.7911ZM14.8922 72.979V57.2484H17.9005V60.1649L17.3953 62.8517L17.8776 65.5385V72.979H14.8922Z" fill="white"/>
    <path d="M34.1568 68.5698C32.9933 68.5698 31.9599 68.3249 31.0566 67.835C30.1533 67.3298 29.4338 66.6408 28.898 65.7682C28.3774 64.8955 28.1172 63.9004 28.1172 62.7828C28.1172 61.6805 28.3698 60.7007 28.875 59.8434C29.3955 58.9707 30.0998 58.2818 30.9877 57.7766C31.8757 57.256 32.8631 56.9958 33.9501 56.9958C35.0218 56.9958 35.9633 57.2407 36.7747 57.7306C37.6014 58.2052 38.2445 58.8636 38.7037 59.7056C39.1783 60.5323 39.4156 61.4738 39.4156 62.5302C39.4156 62.7292 39.4003 62.9359 39.3697 63.1502C39.3544 63.3493 39.3161 63.5789 39.2549 63.8392L29.9313 63.8621V61.6116L37.8541 61.5887L36.6369 62.5302C36.6063 61.8719 36.4839 61.3207 36.2695 60.8768C36.0705 60.4328 35.772 60.096 35.3739 59.8663C34.9912 59.6214 34.5166 59.4989 33.9501 59.4989C33.353 59.4989 32.8325 59.6367 32.3885 59.9123C31.9446 60.1725 31.6001 60.5476 31.3551 61.0375C31.1255 61.5121 31.0107 62.0786 31.0107 62.7369C31.0107 63.4105 31.1331 63.9999 31.3781 64.5051C31.6384 64.995 32.0058 65.3778 32.4804 65.6534C32.955 65.9136 33.5061 66.0437 34.1338 66.0437C34.7003 66.0437 35.2132 65.9519 35.6724 65.7682C36.1317 65.5692 36.5298 65.2783 36.8666 64.8955L38.6348 66.6638C38.099 67.2915 37.4407 67.7661 36.6599 68.0876C35.8944 68.4091 35.0601 68.5698 34.1568 68.5698Z" fill="white"/>
    <path d="M41.4369 68.3402V62.0479C41.4369 61.0528 41.6512 60.1802 42.0799 59.43C42.5238 58.6645 43.1286 58.0675 43.8941 57.6388C44.6595 57.2101 45.5551 56.9958 46.5809 56.9958C47.6066 56.9958 48.5022 57.2101 49.2677 57.6388C50.0485 58.0521 50.6456 58.6416 51.0589 59.407C51.4876 60.1572 51.7019 61.0375 51.7019 62.0479V68.3402H48.6936V62.1857C48.6936 61.4509 48.5099 60.8691 48.1425 60.4404C47.7903 59.9965 47.2698 59.7745 46.5809 59.7745C45.8919 59.7745 45.3638 59.9965 44.9963 60.4404C44.6442 60.8691 44.4682 61.4509 44.4682 62.1857V68.3402H41.4369Z" fill="white"/>
    <path d="M63.2857 68.5928C62.658 68.5928 62.0379 68.5086 61.4256 68.3402C60.8285 68.1718 60.2773 67.9421 59.7721 67.6513C59.2669 67.3451 58.8306 66.9776 58.4632 66.549L60.2544 64.7348C60.6371 65.1634 61.0811 65.4849 61.5863 65.6993C62.0915 65.9136 62.6503 66.0208 63.2627 66.0208C63.7526 66.0208 64.12 65.9519 64.365 65.8141C64.6253 65.6763 64.7554 65.4696 64.7554 65.1941C64.7554 64.8879 64.6176 64.6506 64.342 64.4822C64.0818 64.3138 63.7373 64.176 63.3086 64.0688C62.88 63.9463 62.4283 63.8162 61.9537 63.6784C61.4945 63.5253 61.0505 63.334 60.6218 63.1043C60.1931 62.8594 59.841 62.5302 59.5654 62.1168C59.3052 61.6882 59.175 61.137 59.175 60.4634C59.175 59.7592 59.3435 59.1468 59.6803 58.6263C60.0324 58.1057 60.5299 57.7 61.173 57.4091C61.816 57.1183 62.5738 56.9728 63.4464 56.9728C64.365 56.9728 65.1917 57.1336 65.9266 57.4551C66.6767 57.7766 67.2968 58.2588 67.7867 58.9018L65.9725 60.716C65.6357 60.3027 65.253 60.0041 64.8243 59.8204C64.4109 59.6367 63.9593 59.5448 63.4694 59.5448C63.0254 59.5448 62.6809 59.6137 62.436 59.7515C62.2063 59.8893 62.0915 60.0807 62.0915 60.3256C62.0915 60.6012 62.2217 60.8155 62.4819 60.9686C62.7575 61.1217 63.1096 61.2595 63.5383 61.382C63.967 61.4891 64.4109 61.6193 64.8702 61.7724C65.3448 61.9102 65.7888 62.1092 66.2021 62.3694C66.6308 62.6297 66.9753 62.9742 67.2355 63.4028C67.5111 63.8315 67.6489 64.3827 67.6489 65.0563C67.6489 66.1433 67.2585 67.0083 66.4777 67.6513C65.6969 68.2789 64.6329 68.5928 63.2857 68.5928Z" fill="white"/>
    <path d="M74.7756 68.5698C73.7651 68.5698 72.8542 68.3172 72.0428 67.812C71.2314 67.3068 70.5961 66.6179 70.1368 65.7452C69.6775 64.8726 69.4478 63.8928 69.4478 62.8058C69.4478 61.7035 69.6775 60.716 70.1368 59.8434C70.5961 58.9707 71.2314 58.2818 72.0428 57.7766C72.8542 57.2714 73.7651 57.0187 74.7756 57.0187C75.5717 57.0187 76.2836 57.1795 76.9113 57.501C77.539 57.8225 78.0365 58.2741 78.4039 58.8559C78.7867 59.4224 78.9934 60.0654 79.024 60.7849V64.7807C78.9934 65.5156 78.7867 66.1662 78.4039 66.7327C78.0365 67.2991 77.539 67.7508 76.9113 68.0876C76.2836 68.4091 75.5717 68.5698 74.7756 68.5698ZM75.3267 65.7911C76.1687 65.7911 76.85 65.5156 77.3706 64.9644C77.8911 64.398 78.1513 63.6708 78.1513 62.7828C78.1513 62.201 78.0289 61.6882 77.7839 61.2442C77.5543 60.7849 77.2251 60.4328 76.7964 60.1878C76.3831 59.9276 75.8932 59.7974 75.3267 59.7974C74.7756 59.7974 74.2857 59.9276 73.857 60.1878C73.4436 60.4328 73.1145 60.7849 72.8695 61.2442C72.6399 61.6882 72.5251 62.201 72.5251 62.7828C72.5251 63.3799 72.6399 63.9081 72.8695 64.3673C73.1145 64.8113 73.4436 65.1634 73.857 65.4237C74.2857 65.6687 74.7756 65.7911 75.3267 65.7911ZM77.9906 68.3402V65.3548L78.4728 62.645L77.9906 59.9812V57.2484H80.976V68.3402H77.9906Z" fill="white"/>
    <path d="M83.7981 68.3402V62.0479C83.7981 61.0528 84.0124 60.1802 84.4411 59.43C84.885 58.6645 85.4898 58.0675 86.2553 57.6388C87.0207 57.2101 87.9164 56.9958 88.9421 56.9958C89.9678 56.9958 90.8634 57.2101 91.6289 57.6388C92.4097 58.0521 93.0068 58.6416 93.4201 59.407C93.8488 60.1572 94.0631 61.0375 94.0631 62.0479V68.3402H91.0548V62.1857C91.0548 61.4509 90.8711 60.8691 90.5037 60.4404C90.1516 59.9965 89.631 59.7745 88.9421 59.7745C88.2532 59.7745 87.725 59.9965 87.3576 60.4404C87.0054 60.8691 86.8294 61.4509 86.8294 62.1857V68.3402H83.7981Z" fill="white"/>
    <path d="M102.126 68.5698C100.993 68.5698 99.9752 68.3172 99.0719 67.812C98.1686 67.3068 97.4567 66.6179 96.9362 65.7452C96.4157 64.8726 96.1554 63.8928 96.1554 62.8058C96.1554 61.7035 96.4157 60.716 96.9362 59.8434C97.4567 58.9707 98.1686 58.2818 99.0719 57.7766C99.9905 57.256 101.009 56.9958 102.126 56.9958C102.999 56.9958 103.803 57.1565 104.537 57.478C105.272 57.7995 105.908 58.2588 106.443 58.8559L104.514 60.8079C104.224 60.4864 103.871 60.2414 103.458 60.073C103.06 59.9046 102.616 59.8204 102.126 59.8204C101.575 59.8204 101.077 59.9505 100.633 60.2108C100.205 60.4557 99.8603 60.8002 99.6001 61.2442C99.3551 61.6729 99.2326 62.1857 99.2326 62.7828C99.2326 63.3646 99.3551 63.8851 99.6001 64.3444C99.8603 64.7884 100.205 65.1405 100.633 65.4007C101.077 65.6457 101.575 65.7682 102.126 65.7682C102.631 65.7682 103.083 65.684 103.481 65.5156C103.894 65.3319 104.247 65.0716 104.537 64.7348L106.489 66.6868C105.923 67.2991 105.272 67.7661 104.537 68.0876C103.803 68.4091 102.999 68.5698 102.126 68.5698Z" fill="white"/>
    <path d="M114.214 68.5698C113.418 68.5698 112.706 68.4091 112.078 68.0876C111.466 67.7661 110.976 67.2991 110.609 66.6868C110.257 66.0744 110.08 65.3319 110.08 64.4592V52.6326H113.112V64.4592C113.112 64.9032 113.242 65.24 113.502 65.4696C113.762 65.6993 114.069 65.8141 114.421 65.8141C114.712 65.8141 114.964 65.7682 115.179 65.6763C115.393 65.5692 115.592 65.4237 115.776 65.24L117.613 67.0771C117.184 67.5671 116.709 67.9421 116.189 68.2024C115.684 68.4474 115.025 68.5698 114.214 68.5698ZM107.531 59.9352V57.2484H116.924V59.9352H107.531Z" fill="white"/>
    <path d="M119.719 68.3402V57.2484H122.75V68.3402H119.719ZM121.235 55.4572C120.745 55.4572 120.339 55.2964 120.018 54.9749C119.696 54.6381 119.535 54.2247 119.535 53.7348C119.535 53.2602 119.696 52.8545 120.018 52.5177C120.339 52.1809 120.745 52.0125 121.235 52.0125C121.74 52.0125 122.146 52.1809 122.452 52.5177C122.773 52.8545 122.934 53.2602 122.934 53.7348C122.934 54.2247 122.773 54.6381 122.452 54.9749C122.146 55.2964 121.74 55.4572 121.235 55.4572Z" fill="white"/>
    <path d="M131.088 68.5698C129.97 68.5698 128.96 68.3172 128.056 67.812C127.168 67.2915 126.456 66.5949 125.921 65.7222C125.4 64.8343 125.14 63.8468 125.14 62.7598C125.14 61.6729 125.4 60.7007 125.921 59.8434C126.441 58.9707 127.153 58.2818 128.056 57.7766C128.96 57.256 129.962 56.9958 131.065 56.9958C132.198 56.9958 133.208 57.256 134.096 57.7766C134.999 58.2818 135.711 58.9707 136.232 59.8434C136.752 60.7007 137.012 61.6729 137.012 62.7598C137.012 63.8468 136.752 64.8343 136.232 65.7222C135.711 66.5949 134.999 67.2915 134.096 67.812C133.208 68.3172 132.205 68.5698 131.088 68.5698ZM131.065 65.7682C131.631 65.7682 132.129 65.6457 132.557 65.4007C133.001 65.1405 133.338 64.7884 133.568 64.3444C133.813 63.8851 133.935 63.3646 133.935 62.7828C133.935 62.201 133.813 61.6882 133.568 61.2442C133.323 60.8002 132.986 60.4557 132.557 60.2108C132.129 59.9505 131.631 59.8204 131.065 59.8204C130.514 59.8204 130.024 59.9505 129.595 60.2108C129.166 60.4557 128.829 60.8002 128.585 61.2442C128.34 61.6882 128.217 62.201 128.217 62.7828C128.217 63.3646 128.34 63.8851 128.585 64.3444C128.829 64.7884 129.166 65.1405 129.595 65.4007C130.024 65.6457 130.514 65.7682 131.065 65.7682Z" fill="white"/>
    <path d="M139.11 68.3402V62.0479C139.11 61.0528 139.324 60.1802 139.753 59.43C140.197 58.6645 140.802 58.0675 141.567 57.6388C142.333 57.2101 143.228 56.9958 144.254 56.9958C145.28 56.9958 146.175 57.2101 146.941 57.6388C147.722 58.0521 148.319 58.6416 148.732 59.407C149.161 60.1572 149.375 61.0375 149.375 62.0479V68.3402H146.367V62.1857C146.367 61.4509 146.183 60.8691 145.816 60.4404C145.463 59.9965 144.943 59.7745 144.254 59.7745C143.565 59.7745 143.037 59.9965 142.669 60.4404C142.317 60.8691 142.141 61.4509 142.141 62.1857V68.3402H139.11Z" fill="white"/>
    <path d="M156.014 68.5928C155.387 68.5928 154.767 68.5086 154.154 68.3402C153.557 68.1718 153.006 67.9421 152.501 67.6513C151.995 67.3451 151.559 66.9776 151.192 66.549L152.983 64.7348C153.366 65.1634 153.81 65.4849 154.315 65.6993C154.82 65.9136 155.379 66.0208 155.991 66.0208C156.481 66.0208 156.849 65.9519 157.094 65.8141C157.354 65.6763 157.484 65.4696 157.484 65.1941C157.484 64.8879 157.346 64.6506 157.071 64.4822C156.81 64.3138 156.466 64.176 156.037 64.0688C155.609 63.9463 155.157 63.8162 154.682 63.6784C154.223 63.5253 153.779 63.334 153.35 63.1043C152.922 62.8594 152.57 62.5302 152.294 62.1168C152.034 61.6882 151.904 61.137 151.904 60.4634C151.904 59.7592 152.072 59.1468 152.409 58.6263C152.761 58.1057 153.258 57.7 153.902 57.4091C154.545 57.1183 155.302 56.9728 156.175 56.9728C157.094 56.9728 157.92 57.1336 158.655 57.4551C159.405 57.7766 160.025 58.2588 160.515 58.9018L158.701 60.716C158.364 60.3027 157.982 60.0041 157.553 59.8204C157.139 59.6367 156.688 59.5448 156.198 59.5448C155.754 59.5448 155.41 59.6137 155.165 59.7515C154.935 59.8893 154.82 60.0807 154.82 60.3256C154.82 60.6012 154.95 60.8155 155.21 60.9686C155.486 61.1217 155.838 61.2595 156.267 61.382C156.696 61.4891 157.139 61.6193 157.599 61.7724C158.073 61.9102 158.517 62.1092 158.931 62.3694C159.359 62.6297 159.704 62.9742 159.964 63.4028C160.24 63.8315 160.377 64.3827 160.377 65.0563C160.377 66.1433 159.987 67.0083 159.206 67.6513C158.425 68.2789 157.361 68.5928 156.014 68.5928Z" fill="white"/>
    </svg>
    